<svg width="56" height="56" viewBox="0 0 56 56" fill="none" xmlns="http://www.w3.org/2000/svg">
<g clip-path="url(#clip0_4029_43)">
<g clip-path="url(#clip1_4029_43)">
<path d="M19.1181 46.6734C15.5956 44.9845 12.6206 42.3366 10.5347 39.0336C8.44883 35.7306 7.33652 31.9064 7.32546 27.9999C7.32546 27.5844 7.34146 27.1711 7.36563 26.7593L8.72243 28.7375C8.92054 29.026 9.22508 29.224 9.56912 29.288C9.91315 29.352 10.2685 29.2767 10.5571 29.0788C10.8457 28.8809 11.0439 28.5764 11.1081 28.2324C11.1723 27.8884 11.0973 27.533 10.8995 27.2443L7.59524 22.4275C7.49586 22.2828 7.36864 22.1594 7.22101 22.0645C7.07338 21.9695 6.90831 21.905 6.73545 21.8746C6.56258 21.8442 6.38539 21.8485 6.21423 21.8874C6.04308 21.9263 5.88139 21.9989 5.73862 22.101L0.989257 25.5024C0.848281 25.6032 0.728553 25.7308 0.63691 25.8779C0.545267 26.0251 0.483506 26.1888 0.455153 26.3598C0.4268 26.5308 0.432411 26.7057 0.471666 26.8745C0.510921 27.0433 0.583051 27.2028 0.683935 27.3437C0.78482 27.4847 0.912483 27.6044 1.05963 27.696C1.20678 27.7876 1.37053 27.8493 1.54154 27.8776C1.71254 27.9059 1.88745 27.9002 2.05626 27.8609C2.22507 27.8216 2.38449 27.7494 2.52541 27.6485L4.77368 26.0384C4.71983 26.688 4.68618 27.3419 4.68618 27.9999C4.69879 32.4049 5.95313 36.7172 8.30526 40.4417C10.6574 44.1662 14.012 47.1521 17.984 49.0567C18.3001 49.2071 18.6629 49.2258 18.9927 49.1086C19.3225 48.9915 19.5923 48.7481 19.7427 48.4321C19.8931 48.1161 19.9118 47.7532 19.7946 47.4234C19.6775 47.0936 19.4341 46.8238 19.1181 46.6734Z" fill="#1A2635"/>
<path d="M28 31.4719C29.9175 31.4719 31.472 29.9174 31.472 27.9998C31.472 26.0823 29.9175 24.5278 28 24.5278C26.0824 24.5278 24.528 26.0823 24.528 27.9998C24.528 29.9174 26.0824 31.4719 28 31.4719Z" fill="#3789E6"/>
<path d="M46.6735 36.8818C44.9846 40.4043 42.3367 43.3793 39.0337 45.4652C35.7307 47.5511 31.9065 48.6634 28 48.6744C27.5845 48.6744 27.1712 48.6584 26.7594 48.6343L28.7376 47.2775C29.0261 47.0793 29.224 46.7748 29.288 46.4308C29.352 46.0867 29.2768 45.7314 29.0789 45.4428C28.8809 45.1542 28.5765 44.956 28.2325 44.8918C27.8885 44.8276 27.5331 44.9026 27.2444 45.1004L22.4276 48.4046C22.2829 48.504 22.1595 48.6312 22.0646 48.7789C21.9696 48.9265 21.9051 49.0916 21.8747 49.2644C21.8443 49.4373 21.8487 49.6145 21.8875 49.7856C21.9264 49.9568 21.999 50.1185 22.1011 50.2613L25.5025 55.0106C25.6033 55.1516 25.7309 55.2713 25.8781 55.363C26.0252 55.4546 26.1889 55.5164 26.3599 55.5447C26.5309 55.5731 26.7058 55.5675 26.8746 55.5282C27.0435 55.489 27.2029 55.4168 27.3439 55.3159C27.4848 55.2151 27.6045 55.0874 27.6961 54.9403C27.7877 54.7931 27.8494 54.6293 27.8777 54.4583C27.906 54.2873 27.9003 54.1124 27.861 53.9436C27.8217 53.7748 27.7495 53.6154 27.6486 53.4745L26.0385 51.2262C26.6881 51.2801 27.342 51.3137 28 51.3137C32.405 51.3011 36.7173 50.0468 40.4418 47.6946C44.1663 45.3425 47.1522 41.9879 49.0568 38.0159C49.1312 37.8594 49.1742 37.6897 49.1831 37.5167C49.192 37.3436 49.1667 37.1705 49.1087 37.0072C49.0507 36.8438 48.9611 36.6936 48.845 36.5649C48.729 36.4362 48.5887 36.3316 48.4322 36.2572C48.2757 36.1827 48.1061 36.1398 47.933 36.1309C47.7599 36.122 47.5868 36.1473 47.4235 36.2053C47.2602 36.2632 47.1099 36.3528 46.9812 36.4689C46.8525 36.585 46.748 36.7253 46.6735 36.8818Z" fill="#1A2635"/>
<path d="M36.8818 9.32637C40.4043 11.0153 43.3793 13.6632 45.4652 16.9662C47.5511 20.2692 48.6634 24.0934 48.6744 27.9999C48.6744 28.4154 48.6584 28.8287 48.6343 29.2405L47.2775 27.2623C47.0793 26.9739 46.7748 26.7759 46.4308 26.7119C46.0867 26.6479 45.7314 26.7231 45.4428 26.9211C45.1542 27.119 44.956 27.4234 44.8918 27.7674C44.8276 28.1114 44.9026 28.4668 45.1004 28.7555L48.4046 33.5723C48.504 33.717 48.6313 33.8404 48.7789 33.9353C48.9265 34.0303 49.0916 34.0948 49.2644 34.1252C49.4373 34.1556 49.6145 34.1513 49.7856 34.1124C49.9568 34.0735 50.1185 34.0009 50.2613 33.8988L55.0106 30.4974C55.1516 30.3966 55.2713 30.269 55.363 30.1219C55.4546 29.9747 55.5164 29.811 55.5447 29.64C55.5731 29.469 55.5675 29.2941 55.5282 29.1253C55.489 28.9565 55.4168 28.797 55.316 28.6561C55.2151 28.5151 55.0874 28.3954 54.9403 28.3038C54.7931 28.2122 54.6294 28.1505 54.4583 28.1222C54.2873 28.0939 54.1124 28.0996 53.9436 28.1389C53.7748 28.1782 53.6154 28.2504 53.4745 28.3513L51.2262 29.9614C51.2801 29.3118 51.3137 28.6579 51.3137 27.9999C51.3011 23.5949 50.0468 19.2826 47.6946 15.5581C45.3425 11.8336 41.9879 8.84766 38.0159 6.9431C37.6998 6.79271 37.337 6.77403 37.0072 6.89116C36.6773 7.0083 36.4076 7.25166 36.2572 7.5677C36.1068 7.88374 36.0881 8.24658 36.2053 8.57639C36.3224 8.90621 36.5657 9.17598 36.8818 9.32637Z" fill="#1A2635"/>
<path d="M9.32649 19.118C11.0154 15.5954 13.6633 12.6205 16.9663 10.5346C20.2693 8.44871 24.0935 7.3364 28 7.32533C28.4155 7.32533 28.8288 7.34134 29.2406 7.3655L27.2624 8.72231C26.974 8.92041 26.776 9.22496 26.712 9.569C26.648 9.91303 26.7233 10.2684 26.9212 10.557C27.1191 10.8456 27.4235 11.0437 27.7675 11.1079C28.1115 11.1722 28.4669 11.0971 28.7556 10.8994L33.5725 7.59511C33.7171 7.49573 33.8405 7.36851 33.9355 7.22089C34.0304 7.07326 34.095 6.90819 34.1254 6.73532C34.1557 6.56246 34.1514 6.38527 34.1125 6.21411C34.0736 6.04296 34.001 5.88127 33.8989 5.73849L30.4976 0.989135C30.3967 0.848159 30.2691 0.728431 30.122 0.636788C29.9749 0.545145 29.8111 0.483384 29.6401 0.455031C29.4691 0.426678 29.2942 0.432289 29.1254 0.471544C28.9566 0.510799 28.7971 0.582929 28.6562 0.683813C28.5152 0.784698 28.3956 0.912361 28.304 1.05951C28.2124 1.20666 28.1506 1.37041 28.1223 1.54142C28.094 1.71242 28.0997 1.88732 28.139 2.05614C28.1783 2.22495 28.2505 2.38437 28.3514 2.52528L29.9615 4.77356C29.3119 4.71971 28.658 4.68606 28 4.68606C23.595 4.69867 19.2827 5.95301 15.5582 8.30514C11.8337 10.6573 8.84779 14.0119 6.94322 17.9839C6.79283 18.3 6.77415 18.6628 6.89129 18.9926C7.00842 19.3224 7.25178 19.5922 7.56782 19.7426C7.88386 19.893 8.2467 19.9116 8.57651 19.7945C8.90633 19.6774 9.1761 19.434 9.32649 19.118Z" fill="#1A2635"/>
<path d="M40.5 25.2916H37.4092C37.2068 24.5852 36.9247 23.9042 36.5685 23.2615L38.754 21.076C38.8712 20.9588 38.937 20.7999 38.937 20.6341C38.937 20.4684 38.8712 20.3094 38.754 20.1923L35.8076 17.2461C35.7496 17.1881 35.6807 17.142 35.6049 17.1106C35.5291 17.0792 35.4478 17.063 35.3657 17.063C35.2837 17.063 35.2024 17.0792 35.1266 17.1106C35.0508 17.142 34.9819 17.1881 34.9239 17.2461L32.7384 19.4314C32.0956 19.0753 31.4146 18.7933 30.7083 18.5907V15.4999C30.7083 15.3341 30.6425 15.1752 30.5253 15.058C30.4081 14.9408 30.2491 14.8749 30.0834 14.8749H25.9166C25.7509 14.8749 25.5919 14.9407 25.4747 15.058C25.3575 15.1752 25.2917 15.3341 25.2917 15.4999V18.5907C24.5854 18.7933 23.9043 19.0753 23.2616 19.4314L21.0761 17.2461C21.0181 17.1881 20.9492 17.142 20.8734 17.1106C20.7976 17.0792 20.7163 17.063 20.6343 17.063C20.5522 17.063 20.4709 17.0792 20.3951 17.1106C20.3193 17.142 20.2504 17.1881 20.1924 17.2461L17.246 20.1923C17.1288 20.3094 17.063 20.4684 17.063 20.6341C17.063 20.7999 17.1288 20.9588 17.246 21.076L19.4315 23.2615C19.0753 23.9041 18.7932 24.5852 18.5908 25.2915H15.5C15.3343 25.2915 15.1753 25.3574 15.0581 25.4746C14.9409 25.5918 14.875 25.7507 14.875 25.9165V30.0833C14.875 30.249 14.9409 30.408 15.0581 30.5252C15.1753 30.6424 15.3343 30.7082 15.5 30.7082H18.5908C18.7932 31.4146 19.0753 32.0956 19.4315 32.7383L17.246 34.9238C17.1288 35.0409 17.063 35.1999 17.063 35.3656C17.063 35.5314 17.1288 35.6903 17.246 35.8075L20.1924 38.7536C20.2504 38.8117 20.3193 38.8577 20.3951 38.8891C20.4709 38.9206 20.5522 38.9367 20.6343 38.9367C20.7163 38.9367 20.7976 38.9206 20.8734 38.8891C20.9492 38.8577 21.0181 38.8117 21.0761 38.7536L23.2616 36.5684C23.9043 36.9244 24.5854 37.2065 25.2917 37.409V40.4998C25.2916 40.6656 25.3575 40.8246 25.4747 40.9418C25.5919 41.059 25.7509 41.1249 25.9166 41.1249H30.0834C30.2491 41.1249 30.4081 41.059 30.5253 40.9418C30.6425 40.8246 30.7083 40.6656 30.7083 40.4999V37.4091C31.4146 37.2065 32.0957 36.9245 32.7384 36.5684L34.9239 38.7536C34.9819 38.8117 35.0508 38.8577 35.1266 38.8891C35.2024 38.9206 35.2837 38.9367 35.3657 38.9367C35.4478 38.9367 35.5291 38.9206 35.6049 38.8891C35.6807 38.8577 35.7496 38.8117 35.8076 38.7536L38.754 35.8075C38.8712 35.6903 38.937 35.5314 38.937 35.3656C38.937 35.1999 38.8712 35.0409 38.754 34.9238L36.5685 32.7382C36.9247 32.0956 37.2068 31.4145 37.4092 30.7082H40.5C40.6657 30.7082 40.8247 30.6423 40.9419 30.5251C41.0591 30.408 41.125 30.249 41.125 30.0833V25.9165C41.125 25.7508 41.0591 25.5918 40.9419 25.4746C40.8247 25.3574 40.6657 25.2916 40.5 25.2916ZM28 34.0971C26.7941 34.0972 25.6152 33.7397 24.6124 33.0697C23.6097 32.3998 22.8281 31.4476 22.3666 30.3335C21.905 29.2194 21.7842 27.9934 22.0194 26.8106C22.2547 25.6279 22.8353 24.5414 23.688 23.6886C24.5407 22.8359 25.6271 22.2551 26.8099 22.0198C27.9927 21.7845 29.2186 21.9053 30.3328 22.3667C31.4469 22.8282 32.3992 23.6097 33.0692 24.6124C33.7392 25.6151 34.0968 26.7939 34.0968 27.9999C34.095 29.6163 33.4521 31.1661 32.3091 32.3091C31.1661 33.4522 29.6165 34.0952 28 34.0971Z" fill="#3789E6"/>
</g>
</g>
<defs>
<clipPath id="clip0_4029_43">
<rect width="56" height="56" rx="8" fill="white"/>
</clipPath>
<clipPath id="clip1_4029_43">
<rect width="56" height="56" fill="white"/>
</clipPath>
</defs>
</svg>
