<svg width="459" height="95" viewBox="0 0 459 95" fill="none" xmlns="http://www.w3.org/2000/svg">
<path d="M30.8067 49.9571C32.3772 49.9571 33.6504 48.6831 33.6504 47.1115C33.6504 45.5399 32.3772 44.2658 30.8067 44.2658C29.2362 44.2658 27.963 45.5399 27.963 47.1115C27.963 48.6831 29.2362 49.9571 30.8067 49.9571Z" fill="#045EA8"/>
<path fill-rule="evenodd" clip-rule="evenodd" d="M24.4873 47.1116C24.4873 45.3726 25.2772 43.7917 26.3831 42.5269C24.3293 39.0489 21.4856 36.5194 16.9041 36.2032H8.05712H1.42184C0.947896 37.626 0.947896 38.1003 0.631931 39.8393C0.157983 42.2107 0 44.5821 0 47.1116C0 49.6411 0.157983 52.0125 0.631931 54.542C0.947896 56.281 1.10588 56.7552 1.42184 58.1781H8.05712H17.0621C21.4856 57.8619 24.3293 55.1743 26.5411 51.8544C25.2772 50.5896 24.4873 48.8506 24.4873 47.1116ZM94.1577 47.1116C94.1577 38.5746 91.63 30.1957 87.6804 23.2396C66.9847 15.335 41.0755 23.0815 35.8621 43.0012C36.81 44.1078 37.2839 45.5307 37.2839 47.1116C37.2839 48.6925 36.652 50.1154 35.8621 51.222C41.0755 71.2998 67.1426 79.0463 87.6804 70.9836C91.7879 64.0275 94.1577 55.6486 94.1577 47.1116ZM47.0788 94.2232C27.647 94.2232 9.32098 81.7339 3.00167 63.237H8.05712H18.326C25.1192 63.237 28.4369 58.8105 30.8066 53.5934H30.9646H31.1226C31.2806 54.542 31.7545 55.6486 32.2285 56.5972C42.3394 78.7301 65.8788 81.1015 83.8888 76.833C73.6199 88.6899 63.1931 93.5908 47.0788 94.2232ZM47.0788 0C63.1931 0.790463 73.6199 5.69133 83.7308 17.5483C65.7208 13.1217 42.1814 15.6512 32.0705 37.7841C31.7545 38.5746 31.1226 39.8393 30.9646 40.7879H30.8066H30.6486C28.2789 35.4127 24.9613 31.1442 18.168 31.1442H8.05712H3.00167C9.32098 12.4893 27.647 0 47.0788 0Z" fill="#0A2135"/>
<path fill-rule="evenodd" clip-rule="evenodd" d="M139.689 74.147C150.245 74.147 158.881 68.1452 163.44 59.2626L154.323 54.4612C151.684 59.9829 146.646 64.3041 139.449 64.3041C129.853 64.3041 122.656 56.6219 122.656 47.2592C122.656 37.6564 129.853 30.2142 139.689 30.2142C146.406 30.2142 150.965 33.5752 153.843 39.0968L162.72 33.5752C158.162 25.6529 149.525 20.6114 139.689 20.6114C124.575 20.6114 112.58 31.8947 112.58 47.7393C112.82 62.1435 123.376 74.147 139.689 74.147ZM167.518 73.4268H177.354V20.8515H167.518V73.4268ZM200.624 74.147C210.94 74.147 219.337 65.7445 219.337 55.4215C219.337 45.0985 210.94 36.6961 200.624 36.6961C190.309 36.6961 181.912 45.0985 181.912 55.4215C181.912 65.7445 190.309 74.147 200.624 74.147ZM200.624 64.7843C195.587 64.7843 191.508 60.463 191.508 55.4215C191.508 50.3801 195.347 46.0588 200.624 46.0588C205.662 46.0588 209.741 50.3801 209.741 55.4215C209.741 60.7031 205.662 64.7843 200.624 64.7843ZM237.57 74.147C241.648 74.147 245.246 72.2264 247.406 69.3456V73.4268H257.242V37.4163H247.406V57.102C247.406 63.1038 244.287 65.7445 240.448 65.7445C236.13 65.7445 233.731 62.8637 233.731 58.0623V37.4163H223.655V59.5027C223.895 68.8654 229.173 74.147 237.57 74.147ZM279.313 74.147C284.111 74.147 287.709 72.2264 290.108 69.3456V73.4268H299.944V20.8515H290.108V41.0173C287.709 38.3766 284.111 36.6961 279.313 36.6961C271.156 36.6961 261.8 42.6978 261.8 55.4215C262.04 68.1452 271.636 74.147 279.313 74.147ZM281.232 65.2644C275.714 65.2644 271.636 61.1832 271.636 55.4215C271.636 49.8999 275.714 45.8187 281.232 45.8187C286.51 45.8187 290.348 50.14 290.348 55.4215C290.588 60.7031 286.51 65.2644 281.232 65.2644ZM306.182 73.4268H337.369V63.824H316.258V51.8205H337.369V42.2177H316.258V30.4543H337.369V20.8515H306.182V73.4268ZM340.488 73.4268H352.483L359.92 62.8637L367.597 73.4268H379.592L366.158 55.1815L378.632 37.4163H367.117L360.16 47.4992L353.203 37.4163H341.208L353.922 55.1815L340.488 73.4268ZM381.511 46.2989H387.749V57.8222C387.749 69.5857 391.587 73.4268 402.863 73.4268H404.302V64.3041C398.305 64.3041 397.585 63.3438 397.585 57.8222V46.2989H404.302V37.4163H397.585V23.4922L387.749 29.0138V37.4163H381.511V46.2989ZM426.133 74.147C434.05 74.147 439.808 70.0658 442.926 64.5442L435.01 59.7428C433.33 63.1038 430.212 65.2644 426.133 65.2644C420.855 65.2644 417.737 62.6236 416.537 58.7825H444.366V55.1815C444.366 44.8584 436.689 36.456 425.893 36.456C415.578 36.456 407.181 44.8584 407.181 55.1815C407.181 65.5045 414.858 74.147 426.133 74.147ZM425.893 45.3386C429.972 45.3386 433.09 47.2592 434.53 51.1003H417.017C418.696 47.7393 421.815 45.3386 425.893 45.3386ZM449.164 73.4268H459V20.8515H449.164V73.4268Z" fill="#045EA8"/>
</svg>
