<svg width="56" height="56" viewBox="0 0 56 56" fill="none" xmlns="http://www.w3.org/2000/svg">
<g clip-path="url(#clip0_4029_33)">
<path d="M52.7618 8.74219H25.5743C24.7334 8.7432 23.9272 9.07771 23.3326 9.67233C22.738 10.267 22.4035 11.0731 22.4025 11.9141V26.4141C22.4035 27.255 22.738 28.0612 23.3326 28.6558C23.9272 29.2504 24.7334 29.5849 25.5743 29.5859H27.84V34.5703C27.8403 34.8045 27.9011 35.0347 28.0166 35.2385C28.132 35.4424 28.2981 35.6129 28.4988 35.7337C28.6994 35.8545 28.9279 35.9215 29.1621 35.928C29.3962 35.9346 29.6281 35.8806 29.8352 35.7713L41.5196 29.5859H52.7618C53.6028 29.5849 54.409 29.2504 55.0036 28.6558C55.5982 28.0612 55.9327 27.255 55.9337 26.4141V11.9141C55.9327 11.0731 55.5982 10.267 55.0036 9.67233C54.409 9.07771 53.6028 8.74321 52.7618 8.74219ZM53.215 26.4141C53.2148 26.5342 53.167 26.6494 53.0821 26.7343C52.9971 26.8192 52.882 26.867 52.7618 26.8672H41.1819C40.9602 26.867 40.7418 26.9214 40.5461 27.0256L30.5587 32.3127V28.2266C30.5587 27.866 30.4155 27.5203 30.1605 27.2654C29.9056 27.0104 29.5599 26.8672 29.1993 26.8672H25.5743C25.4542 26.867 25.339 26.8192 25.2541 26.7343C25.1692 26.6494 25.1214 26.5342 25.1212 26.4141V11.9141C25.1214 11.7939 25.1692 11.6788 25.2541 11.5938C25.339 11.5089 25.4542 11.4611 25.5743 11.4609H52.7618C52.882 11.4611 52.9971 11.5089 53.0821 11.5938C53.167 11.6788 53.2148 11.7939 53.215 11.9141V26.4141Z" fill="#1A2635"/>
<path d="M46.4181 15.0859H31.9181C31.5576 15.0859 31.2118 15.2292 30.9569 15.4841C30.7019 15.739 30.5587 16.0848 30.5587 16.4453C30.5587 16.8058 30.7019 17.1516 30.9569 17.4065C31.2118 17.6615 31.5576 17.8047 31.9181 17.8047H46.4181C46.7786 17.8047 47.1244 17.6615 47.3793 17.4065C47.6342 17.1516 47.7775 16.8058 47.7775 16.4453C47.7775 16.0848 47.6342 15.739 47.3793 15.4841C47.1244 15.2292 46.7786 15.0859 46.4181 15.0859Z" fill="#1A2635"/>
<path d="M46.4181 20.5234H31.9181C31.5576 20.5234 31.2118 20.6667 30.9569 20.9216C30.7019 21.1765 30.5587 21.5223 30.5587 21.8828C30.5587 22.2433 30.7019 22.5891 30.9569 22.844C31.2118 23.099 31.5576 23.2422 31.9181 23.2422H46.4181C46.7786 23.2422 47.1244 23.099 47.3793 22.844C47.6342 22.5891 47.7775 22.2433 47.7775 21.8828C47.7775 21.5223 47.6342 21.1765 47.3793 20.9216C47.1244 20.6667 46.7786 20.5234 46.4181 20.5234Z" fill="#1A2635"/>
<path d="M11.9138 31.6349C15.3088 31.6349 18.0609 28.8828 18.0609 25.4879C18.0609 22.0929 15.3088 19.3408 11.9138 19.3408C8.51887 19.3408 5.76672 22.0929 5.76672 25.4879C5.76672 28.8828 8.51887 31.6349 11.9138 31.6349Z" fill="#3789E6"/>
<path d="M18.1655 35.2772C18.0471 35.5194 18.3074 35.2097 13.9116 39.6126C13.665 39.9014 13.3587 40.1333 13.0139 40.2924C12.6691 40.4514 12.2938 40.5337 11.9141 40.5337C11.5343 40.5337 11.1591 40.4514 10.8143 40.2924C10.4694 40.1333 10.1632 39.9014 9.91662 39.6126C5.52075 35.2097 5.78101 35.5194 5.66263 35.2772C-0.237055 38.5444 0.159311 44.9097 0.132812 45.0035C0.132812 45.6013 0.370316 46.1747 0.793076 46.5975C1.21584 47.0203 1.78922 47.2578 2.3871 47.2578H21.441C22.0389 47.2578 22.6123 47.0203 23.035 46.5975C23.4578 46.1748 23.6953 45.6014 23.6953 45.0035C23.6688 44.9097 24.0652 38.5445 18.1655 35.2772ZM12.3672 45.2187H11.4609C11.1605 45.2187 10.8724 45.0994 10.6599 44.8869C10.4475 44.6745 10.3281 44.3864 10.3281 44.0859C10.3281 43.7855 10.4475 43.4973 10.6599 43.2849C10.8724 43.0724 11.1605 42.9531 11.4609 42.9531H12.3672C12.6676 42.9531 12.9558 43.0724 13.1682 43.2849C13.3807 43.4973 13.5 43.7855 13.5 44.0859C13.5 44.3864 13.3807 44.6745 13.1682 44.8869C12.9558 45.0994 12.6676 45.2187 12.3672 45.2187Z" fill="#3789E6"/>
<path d="M12.3096 38.0108L15.9542 34.3654C14.9902 34.085 13.9914 33.9417 12.9874 33.9399H10.8407C9.83663 33.9417 8.83786 34.085 7.87378 34.3654L11.5184 38.0108C11.8627 38.3554 11.9654 38.3553 12.3096 38.0108Z" fill="#3789E6"/>
</g>
<defs>
<clipPath id="clip0_4029_33">
<rect width="56" height="56" rx="8" fill="white"/>
</clipPath>
</defs>
</svg>
