<svg width="56" height="56" viewBox="0 0 56 56" fill="none" xmlns="http://www.w3.org/2000/svg">
<g clip-path="url(#clip0_4029_56)">
<path d="M51.5522 27.3558H48.9272C48.0691 27.3586 47.2356 27.6421 46.5537 28.1629C45.8718 28.6838 45.3791 29.4134 45.1507 30.2405L31.7767 25.8762C30.7555 25.5455 29.6662 25.4843 28.6144 25.6987C27.5626 25.9131 26.5841 26.3958 25.7739 27.0998L21.7912 30.5759H10.9379C10.7703 29.6727 10.2923 28.8564 9.58646 28.2684C8.88067 27.6803 7.99153 27.3575 7.07288 27.3558H4.44788C3.40394 27.3569 2.40308 27.7721 1.6649 28.5103C0.926724 29.2485 0.511515 30.2493 0.510376 31.2933V48.7933C0.511518 49.8372 0.926727 50.8381 1.6649 51.5762C2.40308 52.3144 3.40394 52.7296 4.44788 52.7308H7.07288C7.8641 52.729 8.63644 52.4889 9.28915 52.0417C9.94186 51.5944 10.4446 50.9609 10.7319 50.2236L23.0233 55.1118C24.0903 55.5435 25.2566 55.6695 26.3912 55.4756C27.5259 55.2818 28.5841 54.7757 29.4473 54.0142L31.8922 51.8646L45.2471 50.1556C45.5242 50.9092 46.0254 51.5599 46.6833 52.0202C47.3412 52.4806 48.1242 52.7285 48.9272 52.7308H51.5522C52.5961 52.7296 53.597 52.3144 54.3352 51.5762C55.0733 50.8381 55.4886 49.8372 55.4897 48.7933V31.2933C55.4886 30.2493 55.0733 29.2485 54.3352 28.5103C53.597 27.7721 52.5961 27.3569 51.5522 27.3558ZM8.38538 48.7933C8.385 49.1412 8.24659 49.4749 8.00053 49.7209C7.75448 49.967 7.42086 50.1054 7.07288 50.1058H4.44788C4.0999 50.1054 3.76628 49.967 3.52022 49.7209C3.27416 49.4749 3.13576 49.1412 3.13538 48.7933V31.2933C3.13576 30.9453 3.27416 30.6117 3.52022 30.3656C3.76628 30.1195 4.0999 29.9811 4.44788 29.9808H7.07288C7.42086 29.9811 7.75448 30.1195 8.00053 30.3656C8.24659 30.6117 8.385 30.9453 8.38538 31.2933V48.7933ZM28.3959 42.8815L34.5179 45.979C34.0525 46.5026 33.5392 46.9814 32.9847 47.4094C32.7804 47.2546 33.1709 47.4884 25.9533 43.8248C25.7994 43.7457 25.6313 43.6978 25.4588 43.6839C25.2863 43.67 25.1128 43.6903 24.9482 43.7437C24.7836 43.7971 24.6311 43.8825 24.4997 43.9951C24.3682 44.1077 24.2603 44.2451 24.1822 44.3995C24.104 44.5539 24.0572 44.7223 24.0444 44.8949C24.0315 45.0675 24.053 45.2409 24.1074 45.4052C24.1619 45.5694 24.2483 45.7213 24.3617 45.8521C24.4751 45.9828 24.6132 46.0898 24.7681 46.167L30.8797 49.2599L29.2934 50.6545C29.1223 50.5395 28.7345 50.3635 22.3247 47.1099C22.1708 47.0309 22.0028 46.9831 21.8304 46.9693C21.6579 46.9555 21.4845 46.9759 21.32 47.0293C21.1555 47.0828 21.0031 47.1682 20.8717 47.2808C20.7404 47.3933 20.6325 47.5307 20.5544 47.685C20.4763 47.8394 20.4295 48.0076 20.4166 48.1801C20.4038 48.3526 20.4252 48.526 20.4795 48.6902C20.5339 48.8544 20.6202 49.0063 20.7335 49.137C20.8467 49.2677 20.9847 49.3748 21.1395 49.452L27.0988 52.4677C26.6311 52.7336 26.1094 52.8903 25.5727 52.9262C25.0359 52.962 24.498 52.8761 23.9991 52.6748L11.0104 47.5091V33.2009H18.7837L17.4502 34.3647C17.0064 34.7516 16.6588 35.2366 16.435 35.7812C16.2112 36.3258 16.1174 36.915 16.161 37.5022C16.2046 38.0894 16.3843 38.6583 16.6861 39.1639C16.9878 39.6695 17.4032 40.0978 17.8993 40.415L19.0041 41.1225C19.7003 41.5649 20.5212 41.7694 21.3436 41.7052C22.1659 41.6409 22.9452 41.3114 23.5641 40.7662L27.5912 37.1983L33.6369 40.8196C34.1027 41.0938 34.4973 41.474 34.7886 41.9293C35.0799 42.3847 35.2597 42.9023 35.3134 43.4401L29.5806 40.5393C29.2702 40.3834 28.9106 40.357 28.5807 40.4658C28.2508 40.5746 27.9775 40.8098 27.8207 41.1198C27.6639 41.4298 27.6364 41.7893 27.7442 42.1195C27.852 42.4497 28.0864 42.7237 28.3959 42.8815ZM44.9897 47.5422L35.4132 48.7689L35.8859 48.3532C36.6082 47.7222 37.1704 46.9288 37.5266 46.0383C37.8827 45.1478 38.0226 44.1855 37.9347 43.2304C37.8468 42.2753 37.5336 41.3548 37.0209 40.5442C36.5082 39.7336 35.8106 39.0562 34.9853 38.5676C33.5249 37.6941 28.2727 34.5423 28.0674 34.4305C27.8317 34.2991 27.5609 34.2443 27.2926 34.274C27.0244 34.3036 26.772 34.4161 26.5707 34.5959L21.8231 38.8017C21.6326 38.9696 21.3927 39.0711 21.1395 39.0909C20.8863 39.1107 20.6335 39.0477 20.4192 38.9115L19.3148 38.204C19.1621 38.1065 19.0342 37.9747 18.9413 37.8191C18.8484 37.6636 18.7931 37.4885 18.7796 37.3079C18.7662 37.1272 18.7951 36.9459 18.8639 36.7783C18.9328 36.6107 19.0398 36.4615 19.1764 36.3425L27.5004 29.0772C27.9679 28.6714 28.5322 28.3933 29.1387 28.2696C29.7452 28.146 30.3734 28.181 30.9624 28.3714L44.9897 32.9486L44.9897 47.5422ZM52.8647 48.7933C52.8643 49.1412 52.7259 49.4749 52.4799 49.7209C52.2338 49.967 51.9002 50.1054 51.5522 50.1058H48.9272C48.5792 50.1054 48.2456 49.967 47.9995 49.7209C47.7535 49.4749 47.6151 49.1412 47.6147 48.7933C47.6157 26.9519 47.622 32.1124 47.6147 31.2933C47.6151 30.9453 47.7535 30.6117 47.9995 30.3656C48.2456 30.1195 48.5792 29.9811 48.9272 29.9808H51.5522C51.9002 29.9811 52.2338 30.1195 52.4799 30.3656C52.7259 30.6117 52.8643 30.9453 52.8647 31.2933V48.7933Z" fill="#1A2635"/>
<path d="M10.0327 18.5214L11.4361 19.0408L11.9557 20.4442C12.0003 20.5636 12.0802 20.6666 12.185 20.7394C12.2897 20.8121 12.4141 20.8511 12.5416 20.8511C12.6691 20.8511 12.7936 20.8121 12.8983 20.7394C13.003 20.6666 13.083 20.5636 13.1275 20.4442L13.6469 19.0408L15.0502 18.5214C15.1697 18.4769 15.2727 18.3969 15.3454 18.2922C15.4182 18.1875 15.4572 18.063 15.4572 17.9355C15.4572 17.808 15.4182 17.6836 15.3454 17.5789C15.2727 17.4741 15.1697 17.3942 15.0502 17.3497L13.6469 16.8301L13.1275 15.4267C13.083 15.3072 13.003 15.2042 12.8983 15.1315C12.7936 15.0588 12.6691 15.0198 12.5416 15.0198C12.4141 15.0198 12.2897 15.0588 12.185 15.1315C12.0802 15.2042 12.0003 15.3072 11.9557 15.4267L11.4361 16.8301L10.0327 17.3497C9.91328 17.3942 9.81028 17.4742 9.73755 17.5789C9.66483 17.6836 9.62585 17.808 9.62585 17.9355C9.62585 18.063 9.66483 18.1875 9.73755 18.2922C9.81028 18.3969 9.91328 18.4769 10.0327 18.5214Z" fill="#3789E6"/>
<path d="M40.6576 7.87557L42.061 8.39494L42.5806 9.79828C42.6251 9.91776 42.7051 10.0208 42.8098 10.0935C42.9146 10.1663 43.039 10.2052 43.1665 10.2052C43.294 10.2052 43.4185 10.1663 43.5232 10.0935C43.6279 10.0208 43.7079 9.91776 43.7524 9.79828L44.2718 8.39494L45.6751 7.87557C45.7946 7.83106 45.8976 7.75108 45.9704 7.64636C46.0431 7.54164 46.0821 7.41718 46.0821 7.28968C46.0821 7.16217 46.0431 7.03772 45.9704 6.933C45.8976 6.82828 45.7946 6.7483 45.6751 6.70379L44.2718 6.1842L43.7524 4.78081C43.7079 4.66134 43.6279 4.55834 43.5232 4.48561C43.4185 4.41288 43.294 4.3739 43.1665 4.3739C43.039 4.3739 42.9146 4.41288 42.8098 4.48561C42.7051 4.55834 42.6251 4.66134 42.5806 4.78081L42.061 6.1842L40.6576 6.70379C40.5382 6.74831 40.4352 6.8283 40.3624 6.93301C40.2897 7.03773 40.2507 7.16218 40.2507 7.28968C40.2507 7.41718 40.2897 7.54163 40.3624 7.64634C40.4352 7.75106 40.5382 7.83105 40.6576 7.87557Z" fill="#3789E6"/>
<path d="M27.9998 22.3104C30.163 22.3104 32.2776 21.669 34.0763 20.4671C35.875 19.2653 37.2769 17.5571 38.1047 15.5585C38.9325 13.56 39.1491 11.3608 38.7271 9.23913C38.3051 7.11746 37.2634 5.16859 35.7337 3.63895C34.2041 2.10931 32.2552 1.06762 30.1336 0.645591C28.0119 0.223565 25.8127 0.440164 23.8142 1.268C21.8156 2.09583 20.1074 3.49772 18.9056 5.29638C17.7037 7.09504 17.0623 9.2097 17.0623 11.3729C17.0655 14.2727 18.2189 17.0529 20.2693 19.1033C22.3198 21.1538 25.0999 22.3072 27.9998 22.3104ZM22.7933 10.6919C22.9147 10.5695 23.059 10.4723 23.218 10.4057C23.377 10.3392 23.5475 10.3046 23.7199 10.304C23.8922 10.3033 24.063 10.3366 24.2225 10.402C24.382 10.4674 24.527 10.5636 24.6493 10.6851L26.4223 12.4449L31.3468 7.52044C31.4687 7.39858 31.6134 7.30191 31.7726 7.23596C31.9318 7.17001 32.1025 7.13607 32.2748 7.13607C32.4472 7.13607 32.6178 7.17001 32.777 7.23596C32.9363 7.30192 33.0809 7.39858 33.2028 7.52045C33.3247 7.64231 33.4213 7.78699 33.4873 7.94621C33.5532 8.10543 33.5872 8.27609 33.5872 8.44843C33.5872 8.62077 33.5532 8.79142 33.4873 8.95065C33.4213 9.10987 33.3247 9.25454 33.2028 9.37641L27.3538 15.2254C27.1083 15.471 26.7754 15.6093 26.4282 15.6099C26.0809 15.6106 25.7476 15.4735 25.5012 15.2288L22.8002 12.5478C22.6778 12.4264 22.5806 12.2821 22.514 12.1231C22.4475 11.9642 22.4129 11.7936 22.4122 11.6213C22.4116 11.4489 22.4449 11.2781 22.5103 11.1187C22.5757 10.9592 22.6719 10.8142 22.7933 10.6919Z" fill="#3789E6"/>
</g>
<defs>
<clipPath id="clip0_4029_56">
<rect width="56" height="56" fill="white"/>
</clipPath>
</defs>
</svg>
