<svg width="29" height="29" viewBox="0 0 29 29" fill="none" xmlns="http://www.w3.org/2000/svg">
<path d="M26.5399 6.43213L26.1061 6.56967L23.7956 6.77552L23.1429 7.81769L22.6694 7.66723L20.8306 6.00935L20.5638 5.14718L20.2066 4.22777L19.0509 3.19114L17.6874 2.92436L17.6561 3.54837L18.9918 4.85179L19.6453 5.62165L18.9105 6.00566L18.3124 5.82934L17.4161 5.45549L17.4465 4.73271L16.2705 4.249L15.88 5.94842L14.6948 6.21704L14.812 7.16506L16.3563 7.4623L16.6231 5.9475L17.8979 6.13581L18.4905 6.4829H19.4413L20.0921 7.78631L21.8174 9.5365L21.6909 10.2168L20.2998 10.0396L17.8961 11.2535L16.1653 13.3295L15.94 14.2489H15.3188L14.1612 13.7154L13.0369 14.2489L13.3166 15.4351L13.8058 14.8711L14.6662 14.8443L14.6061 15.9096L15.3188 16.1182L16.0305 16.9176L17.1927 16.5908L18.5201 16.8003L20.0616 17.2148L20.8315 17.3053L22.1368 18.7868L24.6559 20.2684L23.0266 23.3811L21.3069 24.1805L20.6543 25.9593L18.1656 27.6209L17.9007 28.579C24.2627 27.0467 28.9954 21.3318 28.9954 14.4991C28.9935 11.5147 28.0889 8.7371 26.5399 6.43213Z" fill="white"/>
<path d="M16.1643 22.0777L15.1083 20.1198L16.0776 18.1001L15.1083 17.8102L14.02 16.7173L11.6089 16.1763L10.8085 14.5019V15.496H10.4559L8.37802 12.6787V10.3645L6.85491 7.88787L4.4364 8.31896H2.80713L1.98743 7.78171L3.03329 6.95277L1.99019 7.1937C0.732938 9.34082 0 11.8323 0 14.5009C0 22.5069 6.49029 29 14.4972 29C15.1139 29 15.7185 28.9455 16.3166 28.8735L16.1653 27.1169C16.1653 27.1169 16.8308 24.5082 16.8308 24.4196C16.8299 24.3301 16.1643 22.0777 16.1643 22.0777Z" fill="white"/>
<path d="M5.38719 4.67548L7.96263 4.3164L9.14973 3.66561L10.4855 4.05055L12.6196 3.93239L13.3507 2.78313L14.4169 2.95852L17.0062 2.71575L17.7198 1.92927L18.7259 1.25726L20.1493 1.47142L20.6681 1.39295C18.7933 0.510472 16.7071 0 14.4963 0C9.99621 0 5.97243 2.05112 3.31576 5.2718H3.32315L5.38719 4.67548ZM15.1092 1.44188L16.5899 0.626782L17.5407 1.17602L16.1643 2.22374L14.8498 2.35574L14.2581 1.97173L15.1092 1.44188ZM10.7236 1.56096L11.3772 1.83327L12.2329 1.56096L12.699 2.36866L10.7236 2.88744L9.77374 2.33174C9.77374 2.33174 10.7024 1.73357 10.7236 1.56096Z" fill="white"/>
</svg>
