<svg width="28" height="28" viewBox="0 0 28 28" fill="none" xmlns="http://www.w3.org/2000/svg">
<path fill-rule="evenodd" clip-rule="evenodd" d="M5.43441 22.3579V23.8771C5.43441 25.1297 4.4082 26.1559 3.15405 26.1559C1.8999 26.1559 0.875275 25.1297 0.875275 23.8771V22.3579C0.875275 21.1038 1.90149 20.0775 3.15405 20.0775C4.40661 20.0775 5.43441 21.1037 5.43441 22.3579ZM10.3858 14.0008C9.13166 14.0008 8.1054 15.0254 8.1054 16.2795V23.8771C8.1054 25.1296 9.13161 26.1558 10.3858 26.1558C11.6399 26.1558 12.6645 25.1296 12.6645 23.8771V16.2795C12.6645 15.0254 11.6383 14.0008 10.3858 14.0008ZM17.6159 7.92247C16.3618 7.92247 15.3371 8.94715 15.3371 10.2012V23.8771C15.3371 25.1296 16.3618 26.1558 17.6159 26.1558C18.87 26.1558 19.8947 25.1296 19.8947 23.8771V10.2012C19.8947 8.94715 18.87 7.92247 17.6159 7.92247ZM24.846 1.84412C23.5919 1.84412 22.5672 2.87033 22.5672 4.12289V23.8771C22.5672 25.1296 23.5919 26.1558 24.846 26.1558C26.1 26.1558 27.1247 25.1296 27.1247 23.8771V4.12294C27.1247 2.87038 26.1 1.84412 24.846 1.84412Z" fill="white"/>
</svg>
