<svg width="56" height="56" viewBox="0 0 56 56" fill="none" xmlns="http://www.w3.org/2000/svg">
<g clip-path="url(#clip0_4029_63)">
<path d="M50.5 23.2333H44.9358C44.5721 21.9616 44.0642 20.7356 43.4218 19.5793L47.3578 15.644C47.5688 15.433 47.6873 15.1469 47.6873 14.8486C47.6873 14.5502 47.5688 14.2641 47.3578 14.0532L42.0552 8.75043C41.9507 8.64594 41.8267 8.56305 41.6903 8.5065C41.5538 8.44995 41.4075 8.42084 41.2598 8.42084C41.112 8.42084 40.9657 8.44995 40.8293 8.5065C40.6928 8.56305 40.5688 8.64594 40.4644 8.75043L38.7095 10.5053C38.6047 10.6097 38.5215 10.7337 38.4647 10.8703C38.4079 11.0068 38.3786 11.1533 38.3784 11.3012C38.3783 11.4491 38.4073 11.5956 38.4639 11.7322C38.5204 11.8689 38.6033 11.9931 38.7079 12.0977C38.8125 12.2023 38.9367 12.2852 39.0734 12.3417C39.21 12.3983 39.3565 12.4273 39.5044 12.4272C39.6523 12.427 39.7988 12.3977 39.9353 12.3409C40.0719 12.2841 40.1959 12.2009 40.3003 12.0961L41.2598 11.1367L44.9717 14.8486L41.2144 18.6052C41.0342 18.7852 40.9206 19.0211 40.892 19.2742C40.8633 19.5272 40.9215 19.7825 41.0569 19.9982C41.9461 21.4195 42.5924 22.9789 42.9692 24.6125C43.0265 24.8601 43.166 25.081 43.365 25.2392C43.564 25.3973 43.8107 25.4834 44.0649 25.4833H49.375V30.7333H44.0649C43.8108 30.7333 43.5641 30.8193 43.3651 30.9775C43.1661 31.1356 43.0266 31.3566 42.9692 31.6042C42.5924 33.2378 41.9461 34.7972 41.0569 36.2184C40.9215 36.4342 40.8634 36.6895 40.892 36.9425C40.9206 37.1956 41.0343 37.4315 41.2144 37.6115L44.9717 41.3681L41.2598 45.08L37.5032 41.3227C37.3232 41.1424 37.0873 41.0286 36.8342 41C36.5811 40.9714 36.3258 41.0296 36.1101 41.1652C34.6889 42.0544 33.1294 42.7007 31.4958 43.0775C31.2482 43.1349 31.0273 43.2744 30.8691 43.4734C30.711 43.6724 30.6249 43.9191 30.625 44.1733V49.4833H25.375V44.1733C25.3751 43.9191 25.289 43.6724 25.1308 43.4734C24.9727 43.2744 24.7518 43.1349 24.5042 43.0776C22.8706 42.7011 21.3112 42.0548 19.8903 41.1652C19.6746 41.0297 19.4193 40.9714 19.1661 41.0001C18.913 41.0287 18.6771 41.1424 18.4972 41.3227L14.7399 45.08L11.0283 41.3681L14.7853 37.6115C14.9653 37.4316 15.079 37.1959 15.1077 36.9429C15.1363 36.69 15.0783 36.4348 14.9431 36.2192C14.0538 34.7978 13.4076 33.2381 13.0311 31.6042C12.9736 31.3566 12.834 31.1357 12.635 30.9776C12.436 30.8195 12.1893 30.7334 11.9351 30.7333H6.625V25.4833H11.9351C12.1893 25.4833 12.436 25.3972 12.635 25.2391C12.834 25.0809 12.9736 24.8601 13.0311 24.6125C13.4076 22.9786 14.0538 21.4189 14.9431 19.9975C15.0783 19.7819 15.1363 19.5267 15.1077 19.2738C15.079 19.0208 14.9653 18.7851 14.7853 18.6052L11.0283 14.8486L14.7399 11.1367L15.6997 12.0961C15.9108 12.3064 16.1967 12.4243 16.4947 12.424C16.7926 12.4237 17.0783 12.3053 17.289 12.0946C17.4997 11.8839 17.6181 11.5982 17.6184 11.3003C17.6187 11.0023 17.5008 10.7164 17.2905 10.5053L15.5353 8.75043C15.4308 8.64594 15.3068 8.56305 15.1704 8.5065C15.0339 8.44995 14.8876 8.42084 14.7399 8.42084C14.5921 8.42084 14.4459 8.44995 14.3094 8.5065C14.1729 8.56305 14.0489 8.64594 13.9445 8.75043L8.64209 14.0532C8.43116 14.2641 8.31267 14.5502 8.31267 14.8486C8.31267 15.1469 8.43116 15.433 8.64209 15.644L12.5778 19.58C11.9355 20.736 11.4278 21.9617 11.0646 23.2333H5.5C5.20164 23.2333 4.9155 23.3518 4.70452 23.5628C4.49355 23.7738 4.37502 24.0599 4.375 24.3583V31.8583C4.37501 32.1567 4.49354 32.4428 4.70452 32.6538C4.9155 32.8648 5.20164 32.9833 5.5 32.9833H11.0646C11.4278 34.2549 11.9355 35.4806 12.5778 36.6366L8.64209 40.5726C8.43116 40.7836 8.31267 41.0697 8.31267 41.368C8.31267 41.6664 8.43116 41.9525 8.64209 42.1634L13.9445 47.4663C14.0489 47.5707 14.1729 47.6536 14.3094 47.7101C14.4459 47.7667 14.5921 47.7958 14.7399 47.7958C14.8876 47.7958 15.0339 47.7667 15.1703 47.7101C15.3068 47.6536 15.4308 47.5707 15.5353 47.4663L19.4713 43.5303C20.6274 44.1728 21.8533 44.6807 23.125 45.0441V50.6083C23.125 50.9067 23.2435 51.1928 23.4545 51.4038C23.6655 51.6148 23.9516 51.7333 24.25 51.7333H31.75C32.0483 51.7333 32.3345 51.6147 32.5454 51.4037C32.7564 51.1928 32.8749 50.9067 32.875 50.6083V45.0441C34.1468 44.6805 35.3728 44.1726 36.5291 43.5302L40.4644 47.4662C40.6753 47.6771 40.9614 47.7956 41.2598 47.7956C41.5581 47.7956 41.8442 47.6771 42.0552 47.4662L47.3579 42.1635C47.5688 41.9525 47.6873 41.6664 47.6873 41.3681C47.6873 41.0697 47.5688 40.7836 47.3579 40.5727L43.4219 36.6374C44.0643 35.4811 44.5722 34.2551 44.9358 32.9833H50.5C50.7983 32.9832 51.0844 32.8647 51.2954 32.6537C51.5064 32.4427 51.6249 32.1566 51.625 31.8583V24.3583C51.6249 24.06 51.5064 23.7739 51.2954 23.5629C51.0844 23.352 50.7983 23.2334 50.5 23.2333Z" fill="#1A2635"/>
<path d="M28 38.9834C29.7499 38.9827 31.4738 38.5599 33.0255 37.7509C34.5771 36.9418 35.9107 35.7704 36.9132 34.3361C37.9156 32.9017 38.5572 31.2468 38.7836 29.5116C39.01 27.7764 38.8145 26.0122 38.2136 24.3686C38.1634 24.229 38.0861 24.1007 37.9862 23.9911C37.8862 23.8815 37.7655 23.7927 37.6311 23.7299C37.4967 23.6671 37.3512 23.6315 37.203 23.6252C37.0548 23.6188 36.9068 23.6419 36.7675 23.693C36.6282 23.7441 36.5004 23.8222 36.3914 23.9229C36.2825 24.0236 36.1945 24.1448 36.1326 24.2797C36.0707 24.4145 36.036 24.5602 36.0307 24.7085C36.0253 24.8567 36.0493 25.0046 36.1013 25.1435C36.5774 26.4467 36.7321 27.8455 36.5522 29.2213C36.3724 30.597 35.8633 31.909 35.0681 33.046C34.273 34.183 33.2153 35.1114 31.9849 35.7524C30.7544 36.3934 29.3874 36.7281 28 36.7281C26.6126 36.7281 25.2456 36.3934 24.0151 35.7524C22.7847 35.1114 21.727 34.183 20.9319 33.046C20.1367 31.909 19.6276 30.597 19.4478 29.2213C19.2679 27.8455 19.4226 26.4467 19.8987 25.1435C19.9507 25.0046 19.9747 24.8567 19.9693 24.7085C19.964 24.5602 19.9293 24.4145 19.8674 24.2797C19.8055 24.1448 19.7175 24.0236 19.6086 23.9229C19.4996 23.8222 19.3718 23.7441 19.2325 23.693C19.0933 23.6419 18.9452 23.6188 18.797 23.6252C18.6488 23.6315 18.5033 23.6671 18.3689 23.7299C18.2345 23.7927 18.1138 23.8815 18.0138 23.9911C17.9139 24.1007 17.8366 24.229 17.7864 24.3686C17.1856 26.0122 16.99 27.7764 17.2164 29.5116C17.4428 31.2468 18.0844 32.9017 19.0869 34.3361C20.0893 35.7704 21.4229 36.9418 22.9745 37.7509C24.5262 38.5599 26.2501 38.9827 28 38.9834Z" fill="#1A2635"/>
<path d="M37.545 11.9623C37.2184 10.4378 36.5314 9.01383 35.5414 7.80943C34.5515 6.60504 33.2874 5.65531 31.855 5.03975C30.4227 4.4242 28.8637 4.16072 27.3086 4.27139C25.7535 4.38205 24.2475 4.86363 22.9168 5.67582C21.586 6.48801 20.4692 7.60716 19.6597 8.93961C18.8503 10.2721 18.3719 11.779 18.2644 13.3343C18.157 14.8897 18.4237 16.4481 19.0422 17.8792C19.6607 19.3103 20.6131 20.5723 21.8195 21.5598V24.3312C21.8203 24.9349 22.0604 25.5136 22.4873 25.9405C22.9141 26.3674 23.4929 26.6076 24.0966 26.6083H31.9037C32.5074 26.6076 33.0862 26.3674 33.5131 25.9405C33.94 25.5137 34.1801 24.9349 34.1808 24.3312V21.5604C35.5728 20.4269 36.6238 18.9302 37.2176 17.2362C37.8113 15.5421 37.9247 13.7168 37.545 11.9623ZM30.9933 15.8864L29.0443 20.7584C28.9896 20.8958 28.9084 21.021 28.8053 21.1269C28.7021 21.2328 28.5791 21.3173 28.4433 21.3756C28.3075 21.434 28.1615 21.465 28.0137 21.4668C27.8659 21.4687 27.7192 21.4415 27.5819 21.3866C27.4447 21.3317 27.3196 21.2503 27.2138 21.1471C27.108 21.0439 27.0236 20.9208 26.9654 20.7849C26.9072 20.649 26.8764 20.503 26.8747 20.3552C26.873 20.2074 26.9004 20.0607 26.9555 19.9235L28.287 16.5939H26.0509C25.8672 16.5937 25.6862 16.5486 25.5239 16.4624C25.3616 16.3762 25.2229 16.2516 25.1199 16.0995C25.0169 15.9473 24.9527 15.7722 24.9329 15.5895C24.9131 15.4068 24.9384 15.2221 25.0065 15.0514L26.9555 10.1793C27.0102 10.042 27.0914 9.91683 27.1945 9.81093C27.2976 9.70503 27.4206 9.62049 27.5565 9.56215C27.6923 9.50381 27.8383 9.47282 27.9861 9.47093C28.1339 9.46905 28.2806 9.49633 28.4178 9.55119C28.5551 9.60606 28.6802 9.68744 28.786 9.79068C28.8918 9.89393 28.9762 10.017 29.0343 10.1529C29.0925 10.2888 29.1234 10.4348 29.1251 10.5826C29.1268 10.7304 29.0993 10.8771 29.0443 11.0143L27.7128 14.3439H29.9489C30.1326 14.344 30.3136 14.3891 30.4759 14.4753C30.6382 14.5615 30.7769 14.6861 30.88 14.8383C30.983 14.9904 31.0472 15.1655 31.067 15.3482C31.0867 15.5309 31.0614 15.7157 30.9933 15.8864Z" fill="#3789E6"/>
</g>
<defs>
<clipPath id="clip0_4029_63">
<rect width="48" height="48" fill="white" transform="translate(4 4)"/>
</clipPath>
</defs>
</svg>
