<svg width="28" height="28" viewBox="0 0 28 28" fill="none" xmlns="http://www.w3.org/2000/svg">
<path d="M8.31022 1.87989C7.87809 1.82606 7.41588 2.00842 7.15722 2.45183L2.41764 10.5752C2.19738 10.952 2.20678 11.4211 2.44043 11.7897C2.65577 12.1285 3.03026 12.332 3.43164 12.3298L12.8379 12.2887C13.8662 12.2848 14.3873 11.0473 13.6719 10.3086L12.6329 9.23524C12.4089 9.00375 12.4636 8.70371 12.7659 8.59274C13.5122 8.31887 14.3183 8.16668 15.1667 8.16668C19.0603 8.16668 22.1667 11.273 22.1667 15.1667C22.1667 19.0603 19.0603 22.1667 15.1667 22.1667C12.5982 22.1667 10.3837 20.8002 9.16015 18.7624C8.49619 17.6582 7.06299 17.3012 5.95866 17.9649C4.85371 18.628 4.49562 20.0614 5.15885 21.1664C7.19847 24.5632 10.9345 26.8333 15.1667 26.8333C21.5823 26.8333 26.8333 21.5824 26.8333 15.1667C26.8333 8.75099 21.5823 3.50001 15.1667 3.50001C13.4733 3.50001 11.8617 3.87057 10.4039 4.52615C10.1101 4.65826 9.80607 4.52724 9.71743 4.21751L9.28776 2.71616C9.1458 2.22283 8.74235 1.93373 8.31022 1.87989Z" fill="white"/>
</svg>
