<svg width="660" height="820" viewBox="0 0 660 820" fill="none" xmlns="http://www.w3.org/2000/svg">
<rect width="660" height="820" fill="#EDF4FD"/>
<g clip-path="url(#clip0_3933_563)">
<path d="M529.795 506.073C528.414 506.073 527.034 505.728 525.826 505.038L502.359 491.061L503.74 488.646L527.206 502.622C528.759 503.485 530.657 503.485 532.21 502.622L570.343 480.363C571.034 480.018 571.379 479.328 571.379 478.638C571.379 477.948 571.034 477.258 570.343 476.913L519.442 449.822L520.822 447.407L571.724 474.669C573.277 475.532 574.14 476.913 574.14 478.638C574.14 480.363 573.277 481.916 571.896 482.779L533.591 505.038C532.383 505.728 531.002 506.073 529.795 506.073Z" fill="#D4E3F7"/>
<path d="M434.893 717.1C433.167 717.1 431.614 716.755 430.062 715.892L336.713 663.783C335.332 663.092 334.47 661.539 334.47 659.987C334.47 658.434 335.332 657.053 336.713 656.19L378.987 632.379C379.677 632.034 379.677 631.343 379.677 631.171C379.677 630.998 379.677 630.308 378.987 629.963L331.881 602.873C330.501 602.183 329.811 600.802 329.811 599.249C329.811 597.697 330.501 596.316 331.709 595.626L350.862 583.375L352.415 585.618L333.262 597.869C332.572 598.214 332.572 598.904 332.572 599.077C332.572 599.249 332.744 599.94 333.262 600.285L380.368 627.375C381.748 628.065 382.438 629.445 382.438 630.998C382.438 632.551 381.575 633.932 380.368 634.622L337.921 658.606C337.23 658.951 337.058 659.641 337.058 659.987C337.058 660.332 337.058 660.849 337.921 661.367L431.442 713.477C433.685 714.684 436.446 714.684 438.516 713.304L474.234 691.39C474.579 691.218 474.579 690.873 474.579 690.873C474.579 690.7 474.579 690.528 474.234 690.355L448.524 674.653L449.905 672.237L475.614 687.939C476.65 688.63 477.34 689.665 477.34 690.873C477.34 692.081 476.65 693.116 475.787 693.806L440.242 715.72C438.516 716.582 436.791 717.1 434.893 717.1Z" fill="#D4E3F7"/>
<path d="M475.442 507.454L430.407 481.399C427.646 479.846 427.991 477.085 431.097 475.187L474.579 449.995C477.858 448.097 482.689 447.924 485.45 449.477L530.485 475.532C533.246 477.085 532.901 479.846 529.795 481.744L486.312 506.936C483.034 508.834 478.203 509.007 475.442 507.454Z" fill="#D4E3F7"/>
<path d="M545.497 455.862V436.364H501.842L486.83 427.564C483.379 425.493 477.34 425.838 473.371 428.082L459.222 436.191H415.568V456.207C415.395 457.587 416.258 458.795 417.811 459.83L474.234 492.442C477.685 494.513 483.724 494.168 487.693 491.924L542.218 460.521C544.461 459.14 545.497 457.415 545.497 455.862Z" fill="#2364A5"/>
<path d="M480.446 426.356C477.858 426.356 475.269 427.046 473.199 428.254L459.05 436.364H415.395V456.38C415.222 457.76 416.085 458.968 417.638 460.003L474.061 492.615C475.787 493.65 478.03 493.995 480.273 493.995V426.356H480.446Z" fill="#2364A5"/>
<path d="M420.226 436.364H415.222V456.379C415.05 457.76 415.913 458.968 417.466 460.003L420.054 461.556V436.364H420.226Z" fill="#5793CE"/>
<path d="M474.924 492.96C477.858 494.168 482.171 494.168 485.795 492.787V470.011H474.924V492.96Z" fill="#3789E6"/>
<path d="M474.061 472.599L417.638 439.987C414.187 437.917 414.532 434.466 418.673 432.223L473.199 400.819C477.167 398.576 483.207 398.231 486.657 400.301L543.081 432.913C546.532 434.983 546.187 438.434 542.046 440.678L487.52 472.081C483.552 474.324 477.512 474.497 474.061 472.599Z" fill="#D4ECFF"/>
<path d="M475.097 466.733L427.818 439.47C424.885 437.744 425.23 434.811 428.681 432.913L474.407 406.513C477.685 404.615 482.861 404.443 485.795 405.996L533.073 433.258C536.006 434.984 535.661 437.917 532.21 439.815L486.485 466.215C483.034 468.113 478.03 468.458 475.097 466.733Z" fill="#3789E6"/>
<path d="M524.618 461.038C524.618 462.419 523.583 464.317 522.375 465.007C521.167 465.697 520.132 465.18 520.132 463.627C520.132 462.246 521.167 460.348 522.375 459.658C523.583 458.968 524.618 459.486 524.618 461.038Z" fill="#D4ECFF"/>
<path d="M532.038 456.725C532.038 458.105 531.003 460.003 529.795 460.693C528.587 461.383 527.552 460.866 527.552 459.313C527.552 457.932 528.587 456.034 529.795 455.344C531.003 454.654 532.038 455.344 532.038 456.725Z" fill="#D4ECFF"/>
<path d="M539.285 452.584C539.285 453.964 538.25 455.862 537.042 456.552C535.834 457.242 534.799 456.725 534.799 455.172C534.799 453.791 535.834 451.893 537.042 451.203C538.25 450.513 539.285 451.031 539.285 452.584Z" fill="#D4ECFF"/>
<path d="M545.497 424.631V405.133H501.842L486.83 396.333C483.379 394.262 477.34 394.607 473.371 396.85L459.222 404.96H415.568V424.976C415.395 426.356 416.258 427.564 417.811 428.599L474.234 461.211C477.685 463.282 483.724 462.936 487.693 460.693L542.218 429.289C544.461 428.082 545.497 426.356 545.497 424.631Z" fill="#2364A5"/>
<path d="M480.446 395.125C477.858 395.125 475.269 395.815 473.199 397.023L459.05 405.133H415.395V425.148C415.222 426.529 416.085 427.736 417.638 428.772L474.061 461.383C475.787 462.419 478.03 462.764 480.273 462.764V395.125H480.446Z" fill="#2364A5"/>
<path d="M420.226 405.133H415.222V425.148C415.05 426.529 415.913 427.737 417.466 428.772L420.054 430.325V405.133H420.226Z" fill="#5793CE"/>
<path d="M474.924 461.901C477.858 463.109 482.171 463.109 485.795 461.729V438.952H474.924V461.901Z" fill="#3789E6"/>
<path d="M474.061 441.368L417.638 408.756C414.187 406.686 414.532 403.235 418.673 400.991L473.199 369.588C477.167 367.345 483.207 366.999 486.657 369.07L543.081 401.682C546.532 403.752 546.187 407.203 542.046 409.446L487.52 440.85C483.552 443.266 477.512 443.438 474.061 441.368Z" fill="#D4ECFF"/>
<path d="M475.097 435.501L427.818 408.239C424.885 406.513 425.23 403.58 428.681 401.682L474.407 375.282C477.685 373.384 482.861 373.211 485.795 374.764L533.073 402.027C536.006 403.752 535.661 406.686 532.21 408.584L486.485 434.984C483.034 437.054 478.03 437.227 475.097 435.501Z" fill="#3789E6"/>
<path d="M524.618 429.807C524.618 431.187 523.583 433.085 522.375 433.776C521.167 434.466 520.132 433.948 520.132 432.395C520.132 431.015 521.167 429.117 522.375 428.427C523.583 427.736 524.618 428.427 524.618 429.807Z" fill="#D4ECFF"/>
<path d="M532.038 425.666C532.038 427.046 531.003 428.944 529.795 429.634C528.587 430.325 527.552 429.807 527.552 428.254C527.552 426.874 528.587 424.975 529.795 424.285C531.003 423.595 532.038 424.113 532.038 425.666Z" fill="#D4ECFF"/>
<path d="M539.285 421.352C539.285 422.732 538.25 424.631 537.042 425.321C535.834 426.011 534.799 425.493 534.799 423.94C534.799 422.56 535.834 420.662 537.042 419.972C538.25 419.281 539.285 419.972 539.285 421.352Z" fill="#D4ECFF"/>
<path d="M545.497 376.317V356.819H501.842L486.83 348.019C483.379 345.948 477.34 346.293 473.371 348.537L459.222 356.646H415.568V376.662C415.395 378.042 416.258 379.25 417.811 380.286L474.234 412.897C477.685 414.968 483.724 414.623 487.693 412.38L542.218 380.976C544.461 379.595 545.497 377.87 545.497 376.317Z" fill="#2364A5"/>
<path d="M480.446 346.811C477.858 346.811 475.269 347.501 473.199 348.709L459.05 356.819H415.395V376.835C415.222 378.215 416.085 379.423 417.638 380.458L474.061 413.07C475.787 414.105 478.03 414.45 480.273 414.45V346.811H480.446Z" fill="#2364A5"/>
<path d="M420.226 356.819H415.222V376.835C415.05 378.215 415.913 379.423 417.466 380.458L420.054 382.011V356.819H420.226Z" fill="#5793CE"/>
<path d="M474.924 413.415C477.858 414.623 482.171 414.623 485.795 413.242V390.466H474.924V413.415Z" fill="#3789E6"/>
<path d="M474.061 393.054L417.638 360.442C414.187 358.372 414.532 354.921 418.673 352.678L473.199 321.274C477.167 319.031 483.207 318.686 486.657 320.756L543.081 353.368C546.532 355.439 546.187 358.89 542.046 361.133L487.52 392.536C483.552 394.78 477.512 395.125 474.061 393.054Z" fill="#D4ECFF"/>
<path d="M542.046 357.164L487.52 388.568C483.552 390.811 477.512 391.156 474.062 389.086L417.638 356.646C416.948 356.129 416.258 355.611 415.913 355.093C414.705 356.991 415.222 359.062 417.638 360.442L474.062 393.054C477.512 395.125 483.552 394.78 487.52 392.536L542.046 361.133C545.151 359.407 546.014 356.819 544.806 354.921C544.289 355.611 543.426 356.474 542.046 357.164Z" fill="white"/>
<path d="M524.618 381.493C524.618 382.874 523.583 384.772 522.375 385.462C521.167 386.152 520.132 385.634 520.132 384.082C520.132 382.701 521.167 380.803 522.375 380.113C523.583 379.423 524.618 379.94 524.618 381.493Z" fill="#D4ECFF"/>
<path d="M532.038 377.179C532.038 378.56 531.003 380.458 529.795 381.148C528.587 381.838 527.552 381.321 527.552 379.768C527.552 378.387 528.587 376.489 529.795 375.799C531.003 375.109 532.038 375.799 532.038 377.179Z" fill="#D4ECFF"/>
<path d="M539.285 373.038C539.285 374.419 538.25 376.317 537.042 377.007C535.834 377.697 534.799 377.18 534.799 375.627C534.799 374.246 535.834 372.348 537.042 371.658C538.25 370.968 539.285 371.486 539.285 373.038Z" fill="#D4ECFF"/>
<path d="M477.512 372.866L451.112 357.682C449.56 356.819 449.732 355.093 451.63 354.058L477.167 339.391C479.065 338.356 481.826 338.184 483.552 339.046L509.951 354.231C511.504 355.093 511.332 356.819 509.434 357.854L483.897 372.521C481.826 373.729 479.065 373.729 477.512 372.866Z" fill="#3789E6"/>
<path d="M479.928 360.097L476.305 358.027C476.132 357.854 476.132 357.682 476.305 357.509L479.756 355.438C480.101 355.266 480.446 355.266 480.618 355.438L484.242 357.509C484.414 357.682 484.414 357.854 484.242 358.027L480.791 360.097C480.618 360.27 480.101 360.27 479.928 360.097Z" fill="#D4ECFF"/>
<path d="M450.94 357.682C451.113 357.682 451.285 357.509 451.458 357.509L476.995 342.842C478.893 341.807 481.654 341.635 483.379 342.497L509.779 357.682C511.332 356.646 511.332 355.093 509.779 354.231L483.379 339.046C481.826 338.184 478.893 338.184 476.995 339.391L451.458 354.058C449.56 355.093 449.387 356.646 450.94 357.682Z" fill="#396CAA"/>
<path d="M373.811 600.803L276.321 545.242C272.697 543.171 273.215 539.548 277.356 537.132L333.434 504.693C337.576 502.277 343.787 502.105 347.411 504.175L444.901 559.736C448.524 561.807 448.007 565.43 443.865 567.846L387.787 600.285C383.646 602.701 377.434 602.873 373.811 600.803Z" fill="#D4E3F7"/>
<path d="M453.528 541.273V313.682L363.113 290.043L346.376 280.38C342.58 278.137 335.85 278.482 331.536 281.07L316.007 290.043H267.693L282.015 509.697C281.842 511.25 282.705 512.63 284.603 513.666L374.846 581.822C378.642 584.065 385.372 583.72 389.685 581.132L449.905 546.45C452.32 544.897 453.528 542.999 453.528 541.273Z" fill="#2364A5"/>
<path d="M339.474 279C336.713 279 333.78 279.69 331.536 281.07L316.007 290.043H267.693V518.152C267.521 519.705 268.384 521.085 270.282 522.121L374.846 581.65C376.744 582.685 379.16 583.203 381.748 583.203L382.783 353.713L339.474 279Z" fill="#D4ECFF"/>
<path d="M375.709 582.167C378.987 583.548 383.819 583.548 387.615 581.995V350.952H375.709V582.167Z" fill="#5793CE"/>
<path d="M374.846 353.713L270.282 294.184C266.486 291.941 267.003 288.145 271.317 285.556L331.536 250.874C336.023 248.286 342.579 248.113 346.376 250.184L450.94 309.713C454.736 311.956 454.218 315.752 449.905 318.341L389.685 353.023C385.199 355.611 378.642 355.956 374.846 353.713Z" fill="#D4ECFF"/>
<path d="M449.905 314.199L389.685 348.882C385.199 351.47 378.642 351.642 374.846 349.572L270.282 290.043C269.419 289.525 268.729 289.007 268.384 288.317C267.003 290.388 267.694 292.803 270.282 294.184L374.846 353.713C378.642 355.956 385.372 355.611 389.685 353.023L449.905 318.341C453.356 316.443 454.391 313.509 452.838 311.439C452.148 312.474 451.285 313.337 449.905 314.199Z" fill="#FAFDFF"/>
<path d="M377.779 329.556L308.242 289.18C306.517 288.145 306.689 286.419 308.76 285.211L336.885 268.992C338.956 267.784 342.062 267.612 343.787 268.647L413.324 309.023C415.05 310.058 414.877 311.784 412.807 312.992L384.681 329.211C382.611 330.419 379.505 330.592 377.779 329.556Z" fill="#173D7A"/>
<path d="M340.164 291.078L336.195 288.835C336.023 288.662 336.023 288.49 336.195 288.317L340.164 286.074C340.509 285.902 340.854 285.902 341.199 286.074L345.168 288.317C345.34 288.49 345.34 288.662 345.168 288.835L341.199 291.078C340.854 291.078 340.336 291.078 340.164 291.078Z" fill="#D4ECFF"/>
<path d="M353.623 298.67L349.654 296.427C349.481 296.255 349.481 296.082 349.654 295.909L353.623 293.666C353.968 293.494 354.313 293.494 354.658 293.666L358.626 295.909C358.799 296.082 358.799 296.255 358.626 296.427L354.658 298.67C354.313 298.843 353.795 298.843 353.623 298.67Z" fill="#D4ECFF"/>
<path d="M367.081 306.435L363.113 304.192C362.94 304.019 362.94 303.847 363.113 303.674L367.081 301.431C367.427 301.258 367.772 301.258 368.117 301.431L372.085 303.674C372.258 303.847 372.258 304.019 372.085 304.192L368.117 306.435C367.772 306.607 367.427 306.607 367.081 306.435Z" fill="#D4ECFF"/>
<path d="M380.54 314.2L376.572 311.957C376.399 311.784 376.399 311.612 376.572 311.439L380.54 309.196C380.885 309.023 381.23 309.023 381.575 309.196L385.544 311.439C385.717 311.612 385.717 311.784 385.544 311.957L381.575 314.2C381.23 314.372 380.885 314.372 380.54 314.2Z" fill="#D4ECFF"/>
<path d="M308.07 289.18C308.242 289.18 308.415 289.008 308.587 289.008L336.713 272.788C338.783 271.58 341.889 271.408 343.615 272.443L413.152 312.819C414.877 311.611 414.877 310.058 413.152 309.023L343.787 268.647C342.062 267.612 338.956 267.784 336.885 268.992L308.76 285.211C306.517 286.419 306.344 288.145 308.07 289.18Z" fill="#5793CE"/>
<path d="M401.419 398.748L440.932 376.144C443.175 374.937 444.901 371.486 444.901 368.38V354.231C444.901 351.297 443.175 349.917 440.932 351.125L401.419 373.901C399.175 375.109 397.45 378.56 397.45 381.666V395.815C397.45 398.748 399.175 400.129 401.419 398.748Z" fill="#173D7A"/>
<path d="M443.003 350.78C443.693 351.297 444.038 352.333 444.038 353.713V367.862C444.038 370.795 442.313 374.246 440.069 375.627L400.556 398.231C399.866 398.576 399.175 398.748 398.658 398.576C399.348 399.266 400.383 399.438 401.764 398.748L441.277 376.144C443.52 374.937 445.246 371.486 445.246 368.38V354.231C445.073 352.16 444.211 350.952 443.003 350.78Z" fill="white"/>
<path d="M413.324 383.391L416.948 381.321C417.466 380.976 417.811 380.286 417.811 379.595V375.799C417.811 375.109 417.466 374.937 416.948 375.109L413.324 377.18C412.807 377.525 412.462 378.215 412.462 378.905V382.701C412.462 383.391 412.807 383.737 413.324 383.391Z" fill="#396CAA"/>
<path d="M425.403 376.317L429.026 374.246C429.544 373.901 429.889 373.211 429.889 372.521V368.725C429.889 368.035 429.544 367.862 429.026 368.035L425.403 370.105C424.885 370.45 424.54 371.141 424.54 371.831V375.627C424.54 376.317 425.058 376.662 425.403 376.317Z" fill="white"/>
<path d="M401.419 501.069L440.932 478.466C443.175 477.258 444.901 473.807 444.901 470.701V456.552C444.901 453.619 443.175 452.238 440.932 453.446L401.419 476.05C399.175 477.258 397.45 480.709 397.45 483.815V497.964C397.45 500.897 399.175 502.277 401.419 501.069Z" fill="#173D7A"/>
<path d="M443.003 453.101C443.693 453.619 444.038 454.654 444.038 456.034V470.183C444.038 473.117 442.313 476.568 440.069 477.948L400.556 500.552C399.866 500.897 399.175 501.069 398.658 500.897C399.348 501.587 400.383 501.76 401.764 501.069L441.277 478.466C443.52 477.258 445.246 473.807 445.246 470.701V456.552C445.073 454.481 444.211 453.274 443.003 453.101Z" fill="white"/>
<path d="M413.324 485.712L416.948 483.642C417.466 483.297 417.811 482.607 417.811 481.916V478.12C417.811 477.43 417.466 477.258 416.948 477.43L413.324 479.501C412.807 479.846 412.462 480.536 412.462 481.226V485.022C412.462 485.54 412.807 485.885 413.324 485.712Z" fill="#396CAA"/>
<path d="M425.403 478.638L429.026 476.567C429.544 476.222 429.889 475.532 429.889 474.842V471.046C429.889 470.356 429.544 470.183 429.026 470.356L425.403 472.426C424.885 472.771 424.54 473.462 424.54 474.152V477.948C424.54 478.638 425.058 478.983 425.403 478.638Z" fill="#396CAA"/>
<path d="M401.419 552.144L440.932 529.54C443.175 528.332 444.901 524.881 444.901 521.775V507.626C444.901 504.693 443.175 503.313 440.932 504.521L401.419 527.124C399.175 528.332 397.45 531.783 397.45 534.889V549.038C397.45 551.971 399.175 553.352 401.419 552.144Z" fill="#173D7A"/>
<path d="M443.003 504.176C443.693 504.693 444.038 505.728 444.038 507.109V521.258C444.038 524.191 442.313 527.642 440.069 529.023L400.383 551.626C399.693 551.971 399.003 552.144 398.485 551.971C399.175 552.662 400.211 552.834 401.591 552.144L441.105 529.54C443.348 528.332 445.073 524.881 445.073 521.775V507.627C445.073 505.556 444.211 504.348 443.003 504.176Z" fill="white"/>
<path d="M413.324 536.787L416.948 534.716C417.466 534.371 417.811 533.681 417.811 532.991V529.195C417.811 528.505 417.466 528.332 416.948 528.505L413.324 530.575C412.807 530.92 412.462 531.611 412.462 532.301V536.097C412.462 536.787 412.807 536.96 413.324 536.787Z" fill="white"/>
<path d="M425.403 529.713L429.026 527.642C429.544 527.297 429.889 526.607 429.889 525.917V522.12C429.889 521.43 429.544 521.258 429.026 521.43L425.403 523.501C424.885 523.846 424.54 524.536 424.54 525.226V529.022C424.54 529.713 425.058 530.058 425.403 529.713Z" fill="#396CAA"/>
<path d="M401.419 449.823L440.932 427.219C443.175 426.011 444.901 422.56 444.901 419.454V405.305C444.901 402.372 443.175 400.992 440.932 402.199L401.419 424.803C399.175 426.011 397.45 429.462 397.45 432.568V446.717C397.45 449.823 399.175 451.203 401.419 449.823Z" fill="#173D7A"/>
<path d="M443.003 401.854C443.693 402.372 444.038 403.407 444.038 404.788V418.937C444.038 421.87 442.313 425.321 440.069 426.701L400.556 449.305C399.866 449.65 399.175 449.823 398.658 449.65C399.348 450.34 400.383 450.513 401.764 449.823L441.277 427.219C443.52 426.011 445.246 422.56 445.246 419.454V405.305C445.073 403.407 444.211 402.027 443.003 401.854Z" fill="white"/>
<path d="M413.324 434.466L416.948 432.395C417.466 432.05 417.811 431.36 417.811 430.67V426.874C417.811 426.184 417.466 426.011 416.948 426.184L413.324 428.254C412.807 428.599 412.462 429.289 412.462 429.98V433.776C412.462 434.466 412.807 434.811 413.324 434.466Z" fill="white"/>
<path d="M425.403 427.564L429.026 425.493C429.544 425.148 429.889 424.458 429.889 423.768V419.972C429.889 419.282 429.544 419.109 429.026 419.282L425.403 421.352C424.885 421.697 424.54 422.388 424.54 423.078V426.874C424.54 427.564 425.058 427.737 425.403 427.564Z" fill="white"/>
<path d="M367.081 384.254L275.803 331.627C273.733 330.419 272.18 327.313 272.18 324.553V307.125C272.18 304.364 273.905 303.157 275.803 304.364L367.081 356.992C369.152 358.2 370.705 361.305 370.705 364.066V381.494C370.877 384.254 369.152 385.462 367.081 384.254Z" fill="#3789E6"/>
<path opacity="0.16" d="M364.493 378.215L278.391 328.521C277.356 328.004 276.493 326.278 276.493 324.898V311.784C276.493 310.404 277.356 309.714 278.391 310.404L364.493 360.098C365.528 360.615 366.391 362.341 366.391 363.721V376.835C366.391 378.215 365.528 378.733 364.493 378.215Z" fill="#D4ECFF"/>
<path d="M296.337 332.145L283.568 324.725C282.533 324.207 281.67 322.654 281.67 321.274C281.67 319.894 282.533 319.376 283.568 319.894L296.337 327.313C297.372 327.831 298.235 329.384 298.235 330.764C298.235 332.145 297.372 332.835 296.337 332.145Z" fill="#D4ECFF"/>
<path d="M307.38 336.113C307.38 337.494 306.517 338.011 305.309 337.321C304.101 336.631 303.238 335.078 303.238 333.698C303.238 332.317 304.101 331.8 305.309 332.49C306.344 333.18 307.38 334.733 307.38 336.113Z" fill="#173D7A"/>
<path d="M314.799 340.427C314.799 341.808 313.936 342.325 312.729 341.635C311.521 340.945 310.658 339.392 310.658 338.011C310.658 336.631 311.521 336.113 312.729 336.804C313.764 337.494 314.799 339.047 314.799 340.427Z" fill="#173D7A"/>
<path d="M322.219 344.741C322.219 346.121 321.356 346.639 320.148 345.949C318.94 345.259 318.078 343.706 318.078 342.325C318.078 340.945 318.94 340.427 320.148 341.117C321.183 341.635 322.219 343.361 322.219 344.741Z" fill="#D4ECFF"/>
<path d="M329.638 349.055C329.638 350.435 328.776 350.953 327.568 350.262C326.36 349.572 325.497 348.019 325.497 346.639C325.497 345.259 326.36 344.741 327.568 345.431C328.776 345.949 329.638 347.674 329.638 349.055Z" fill="#173D7A"/>
<path d="M360.87 370.796L356.556 368.38C355.866 368.035 355.348 366.999 355.348 366.137V361.478C355.348 360.615 355.866 360.27 356.556 360.615L360.87 363.031C361.56 363.376 362.078 364.411 362.078 365.274V369.933C362.078 370.796 361.56 371.313 360.87 370.796Z" fill="#173D7A"/>
<path d="M367.081 414.968L275.803 362.34C273.733 361.133 272.18 358.027 272.18 355.266V337.839C272.18 335.078 273.905 333.87 275.803 335.078L367.081 387.705C369.152 388.913 370.705 392.019 370.705 394.78V412.207C370.877 414.968 369.152 416.176 367.081 414.968Z" fill="#3789E6"/>
<path opacity="0.16" d="M364.493 408.929L278.391 359.235C277.356 358.717 276.493 356.992 276.493 355.611V342.498C276.493 341.117 277.356 340.427 278.391 341.117L364.493 390.811C365.528 391.329 366.391 393.054 366.391 394.435V407.548C366.391 408.756 365.528 409.446 364.493 408.929Z" fill="#D4ECFF"/>
<path d="M296.337 362.858L283.568 355.438C282.533 354.921 281.67 353.368 281.67 351.987C281.67 350.607 282.533 350.089 283.568 350.607L296.337 358.027C297.372 358.544 298.235 360.097 298.235 361.478C298.235 362.858 297.372 363.548 296.337 362.858Z" fill="#D4ECFF"/>
<path d="M307.38 366.827C307.38 368.207 306.517 368.725 305.309 368.035C304.101 367.344 303.238 365.792 303.238 364.411C303.238 363.031 304.101 362.513 305.309 363.203C306.344 363.894 307.38 365.446 307.38 366.827Z" fill="white"/>
<path d="M314.799 371.141C314.799 372.521 313.936 373.039 312.729 372.348C311.521 371.658 310.658 370.105 310.658 368.725C310.658 367.344 311.521 366.827 312.729 367.517C313.764 368.207 314.799 369.76 314.799 371.141Z" fill="#173D7A"/>
<path d="M322.219 375.454C322.219 376.835 321.356 377.352 320.148 376.662C318.94 375.972 318.078 374.419 318.078 373.039C318.078 371.658 318.94 371.141 320.148 371.831C321.183 372.348 322.219 374.074 322.219 375.454Z" fill="#D4ECFF"/>
<path d="M329.638 379.595C329.638 380.976 328.776 381.493 327.568 380.803C326.36 380.113 325.497 378.56 325.497 377.179C325.497 375.799 326.36 375.281 327.568 375.972C328.776 376.662 329.638 378.387 329.638 379.595Z" fill="#173D7A"/>
<path d="M360.87 401.509L356.556 399.093C355.866 398.748 355.348 397.713 355.348 396.85V392.192C355.348 391.329 355.866 390.984 356.556 391.329L360.87 393.744C361.56 394.09 362.078 395.125 362.078 395.988V400.646C362.078 401.509 361.56 402.027 360.87 401.509Z" fill="#173D7A"/>
<path d="M367.081 445.682L275.803 392.882C273.733 391.674 272.18 388.568 272.18 385.807V368.38C272.18 365.619 273.905 364.411 275.803 365.619L367.081 418.246C369.152 419.454 370.705 422.56 370.705 425.321V442.921C370.877 445.509 369.152 446.889 367.081 445.682Z" fill="#3789E6"/>
<path opacity="0.16" d="M364.493 439.642L278.391 389.948C277.356 389.431 276.493 387.705 276.493 386.325V373.211C276.493 371.831 277.356 371.141 278.391 371.831L364.493 421.525C365.528 422.042 366.391 423.768 366.391 425.148V438.262C366.391 439.47 365.528 440.16 364.493 439.642Z" fill="#D4ECFF"/>
<path d="M296.337 393.572L283.568 386.152C282.533 385.635 281.67 384.082 281.67 382.701C281.67 381.321 282.533 380.803 283.568 381.321L296.337 388.741C297.372 389.258 298.235 390.811 298.235 392.191C298.235 393.572 297.372 394.262 296.337 393.572Z" fill="#D4ECFF"/>
<path d="M307.38 397.54C307.38 398.921 306.517 399.438 305.309 398.748C304.101 398.058 303.238 396.505 303.238 395.125C303.238 393.744 304.101 393.227 305.309 393.917C306.344 394.607 307.38 396.16 307.38 397.54Z" fill="white"/>
<path d="M314.799 401.854C314.799 403.235 313.936 403.752 312.729 403.062C311.521 402.372 310.658 400.819 310.658 399.438C310.658 398.058 311.521 397.54 312.729 398.231C313.764 398.748 314.799 400.474 314.799 401.854Z" fill="#173D7A"/>
<path d="M322.219 405.996C322.219 407.376 321.356 407.894 320.148 407.203C318.94 406.513 318.078 404.96 318.078 403.58C318.078 402.199 318.94 401.682 320.148 402.372C321.183 403.062 322.219 404.788 322.219 405.996Z" fill="#D4ECFF"/>
<path d="M329.638 410.309C329.638 411.69 328.776 412.207 327.568 411.517C326.36 410.827 325.497 409.274 325.497 407.894C325.497 406.513 326.36 405.996 327.568 406.686C328.776 407.376 329.638 409.101 329.638 410.309Z" fill="#173D7A"/>
<path d="M360.87 432.223L356.556 429.807C355.866 429.462 355.348 428.427 355.348 427.564V422.905C355.348 422.042 355.866 421.697 356.556 422.042L360.87 424.458C361.56 424.803 362.078 425.838 362.078 426.701V431.36C362.078 432.223 361.56 432.568 360.87 432.223Z" fill="#173D7A"/>
<path d="M367.081 476.395L275.803 423.595C273.733 422.387 272.18 419.282 272.18 416.521V399.093C272.18 396.333 273.905 395.125 275.803 396.333L367.081 448.96C369.152 450.168 370.705 453.274 370.705 456.034V473.462C370.877 476.223 369.152 477.603 367.081 476.395Z" fill="#3789E6"/>
<path opacity="0.16" d="M364.493 470.183L278.391 420.489C277.356 419.972 276.493 418.246 276.493 416.866V403.752C276.493 402.372 277.356 401.682 278.391 402.372L364.493 452.066C365.528 452.583 366.391 454.309 366.391 455.689V468.803C366.391 470.183 365.528 470.874 364.493 470.183Z" fill="#D4ECFF"/>
<path d="M296.337 424.285L283.568 416.866C282.533 416.348 281.67 414.795 281.67 413.415C281.67 412.035 282.533 411.517 283.568 412.035L296.337 419.454C297.372 419.972 298.235 421.525 298.235 422.905C298.235 424.285 297.372 424.976 296.337 424.285Z" fill="#D4ECFF"/>
<path d="M307.38 428.254C307.38 429.634 306.517 430.152 305.309 429.462C304.101 428.772 303.238 427.219 303.238 425.838C303.238 424.458 304.101 423.94 305.309 424.631C306.344 425.148 307.38 426.874 307.38 428.254Z" fill="#173D7A"/>
<path d="M314.799 432.568C314.799 433.948 313.936 434.466 312.729 433.776C311.521 433.085 310.658 431.533 310.658 430.152C310.658 428.772 311.521 428.254 312.729 428.944C313.764 429.462 314.799 431.187 314.799 432.568Z" fill="#173D7A"/>
<path d="M322.219 436.709C322.219 438.09 321.356 438.607 320.148 437.917C318.94 437.227 318.078 435.674 318.078 434.293C318.078 432.913 318.94 432.395 320.148 433.086C321.183 433.776 322.219 435.501 322.219 436.709Z" fill="#D4ECFF"/>
<path d="M329.638 441.023C329.638 442.403 328.776 442.921 327.568 442.231C326.36 441.541 325.497 439.988 325.497 438.607C325.497 437.227 326.36 436.709 327.568 437.399C328.776 438.09 329.638 439.642 329.638 441.023Z" fill="#173D7A"/>
<path d="M360.87 462.936L356.556 460.521C355.866 460.176 355.348 459.14 355.348 458.278V453.619C355.348 452.756 355.866 452.411 356.556 452.756L360.87 455.172C361.56 455.517 362.078 456.552 362.078 457.415V462.074C362.078 462.936 361.56 463.281 360.87 462.936Z" fill="#D4ECFF"/>
<path d="M367.081 507.109L275.803 454.309C273.733 453.101 272.18 449.995 272.18 447.234V429.807C272.18 427.046 273.905 425.838 275.803 427.046L367.081 479.674C369.152 480.881 370.705 483.987 370.705 486.748V504.175C370.877 506.936 369.152 508.317 367.081 507.109Z" fill="#3789E6"/>
<path opacity="0.16" d="M364.493 500.897L278.391 451.203C277.356 450.685 276.493 448.96 276.493 447.58V434.466C276.493 433.085 277.356 432.395 278.391 433.085L364.493 482.779C365.528 483.297 366.391 485.023 366.391 486.403V499.517C366.391 500.897 365.528 501.587 364.493 500.897Z" fill="#D4ECFF"/>
<path d="M296.337 454.999L283.568 447.579C282.533 447.062 281.67 445.509 281.67 444.128C281.67 442.748 282.533 442.23 283.568 442.748L296.337 450.168C297.372 450.685 298.235 452.238 298.235 453.619C298.235 454.999 297.372 455.517 296.337 454.999Z" fill="#D4ECFF"/>
<path d="M307.38 458.968C307.38 460.348 306.517 460.866 305.309 460.176C304.101 459.485 303.238 457.932 303.238 456.552C303.238 455.172 304.101 454.654 305.309 455.344C306.344 455.862 307.38 457.587 307.38 458.968Z" fill="#173D7A"/>
<path d="M314.799 463.109C314.799 464.489 313.936 465.007 312.729 464.317C311.521 463.627 310.658 462.074 310.658 460.693C310.658 459.313 311.521 458.795 312.729 459.485C313.764 460.176 314.799 461.901 314.799 463.109Z" fill="white"/>
<path d="M322.219 467.423C322.219 468.803 321.356 469.321 320.148 468.63C318.94 467.94 318.078 466.387 318.078 465.007C318.078 463.627 318.94 463.109 320.148 463.799C321.183 464.489 322.219 466.215 322.219 467.423Z" fill="#D4ECFF"/>
<path d="M329.638 471.736C329.638 473.117 328.776 473.634 327.568 472.944C326.36 472.254 325.497 470.701 325.497 469.321C325.497 467.94 326.36 467.423 327.568 468.113C328.776 468.803 329.638 470.356 329.638 471.736Z" fill="white"/>
<path d="M360.87 493.65L356.556 491.234C355.866 490.889 355.348 489.854 355.348 488.991V484.332C355.348 483.47 355.866 483.125 356.556 483.47L360.87 485.885C361.56 486.23 362.078 487.266 362.078 488.128V492.787C362.078 493.65 361.56 493.995 360.87 493.65Z" fill="#D4ECFF"/>
<path d="M367.081 537.822L275.803 485.023C273.733 483.815 272.18 480.709 272.18 477.948V460.521C272.18 457.76 273.905 456.552 275.803 457.76L367.081 510.387C369.152 511.595 370.705 514.701 370.705 517.462V534.889C370.877 537.65 369.152 538.858 367.081 537.822Z" fill="#3789E6"/>
<path opacity="0.16" d="M364.493 531.611L278.391 481.917C277.356 481.399 276.493 479.674 276.493 478.293V465.352C276.493 463.972 277.356 463.281 278.391 463.972L364.493 513.666C365.528 514.183 366.391 515.909 366.391 517.289V530.403C366.391 531.611 365.528 532.301 364.493 531.611Z" fill="#D4ECFF"/>
<path d="M296.337 485.713L283.568 478.293C282.533 477.776 281.67 476.223 281.67 474.842C281.67 473.462 282.533 472.944 283.568 473.462L296.337 480.881C297.372 481.399 298.235 482.952 298.235 484.332C298.235 485.713 297.372 486.23 296.337 485.713Z" fill="#D4ECFF"/>
<path d="M307.38 489.509C307.38 490.889 306.517 491.407 305.309 490.717C304.101 490.026 303.238 488.473 303.238 487.093C303.238 485.713 304.101 485.195 305.309 485.885C306.344 486.575 307.38 488.301 307.38 489.509Z" fill="#173D7A"/>
<path d="M314.799 493.822C314.799 495.203 313.936 495.72 312.729 495.03C311.521 494.34 310.658 492.787 310.658 491.407C310.658 490.026 311.521 489.509 312.729 490.199C313.764 490.889 314.799 492.615 314.799 493.822Z" fill="#173D7A"/>
<path d="M322.219 498.136C322.219 499.517 321.356 500.034 320.148 499.344C318.94 498.654 318.078 497.101 318.078 495.72C318.078 494.34 318.94 493.822 320.148 494.513C321.183 495.203 322.219 496.756 322.219 498.136Z" fill="#D4ECFF"/>
<path d="M329.638 502.45C329.638 503.83 328.776 504.348 327.568 503.658C326.36 502.968 325.497 501.415 325.497 500.034C325.497 498.654 326.36 498.136 327.568 498.826C328.776 499.517 329.638 501.069 329.638 502.45Z" fill="#173D7A"/>
<path d="M360.87 524.364L356.556 521.948C355.866 521.603 355.348 520.568 355.348 519.705V515.046C355.348 514.183 355.866 513.838 356.556 514.183L360.87 516.599C361.56 516.944 362.078 517.979 362.078 518.842V523.501C362.078 524.364 361.56 524.709 360.87 524.364Z" fill="#173D7A"/>
<path d="M367.081 568.363L275.803 515.736C273.733 514.528 272.18 511.422 272.18 508.662V491.234C272.18 488.473 273.905 487.266 275.803 488.473L367.081 541.101C369.152 542.309 370.705 545.414 370.705 548.175V565.603C370.877 568.363 369.152 569.571 367.081 568.363Z" fill="#3789E6"/>
<path opacity="0.16" d="M364.493 562.324L278.391 512.63C277.356 512.113 276.493 510.387 276.493 509.007V495.893C276.493 494.513 277.356 493.823 278.391 494.513L364.493 544.207C365.528 544.724 366.391 546.45 366.391 547.83V560.944C366.391 562.324 365.528 563.014 364.493 562.324Z" fill="#D4ECFF"/>
<path d="M296.337 516.426L283.568 509.007C282.533 508.489 281.67 506.936 281.67 505.556C281.67 504.175 282.533 503.658 283.568 504.175L296.337 511.595C297.372 512.113 298.235 513.666 298.235 515.046C298.235 516.426 297.372 516.944 296.337 516.426Z" fill="#D4ECFF"/>
<path d="M307.38 520.222C307.38 521.603 306.517 522.12 305.309 521.43C304.101 520.74 303.238 519.187 303.238 517.807C303.238 516.426 304.101 515.909 305.309 516.599C306.344 517.289 307.38 519.015 307.38 520.222Z" fill="white"/>
<path d="M314.799 524.536C314.799 525.917 313.936 526.434 312.729 525.744C311.521 525.054 310.658 523.501 310.658 522.12C310.658 520.74 311.521 520.222 312.729 520.913C313.764 521.603 314.799 523.156 314.799 524.536Z" fill="#173D7A"/>
<path d="M322.219 528.85C322.219 530.23 321.356 530.748 320.148 530.058C318.94 529.368 318.078 527.815 318.078 526.434C318.078 525.054 318.94 524.536 320.148 525.226C321.183 525.917 322.219 527.47 322.219 528.85Z" fill="#D4ECFF"/>
<path d="M329.638 533.164C329.638 534.544 328.776 535.062 327.568 534.371C326.36 533.681 325.497 532.128 325.497 530.748C325.497 529.368 326.36 528.85 327.568 529.54C328.776 530.23 329.638 531.783 329.638 533.164Z" fill="#173D7A"/>
<path d="M360.87 555.077L356.556 552.662C355.866 552.316 355.348 551.281 355.348 550.418V545.76C355.348 544.897 355.866 544.552 356.556 544.897L360.87 547.313C361.56 547.658 362.078 548.693 362.078 549.556V554.214C362.078 555.077 361.56 555.422 360.87 555.077Z" fill="#D4ECFF"/>
<path d="M340.682 288.835C339.991 288.835 339.301 288.145 339.301 287.455V230.686C339.301 229.996 339.991 229.306 340.682 229.306C341.372 229.306 342.062 229.996 342.062 230.686V287.455C342.062 288.145 341.372 288.835 340.682 288.835Z" fill="#5793CE"/>
<path d="M345.513 227.062H335.678V248.286H345.513V227.062Z" fill="#5793CE"/>
<path d="M344.132 250.356C342.234 251.391 339.129 251.391 337.231 250.356C335.332 249.321 335.332 247.423 337.231 246.388C339.129 245.352 342.234 245.352 344.132 246.388C346.031 247.595 346.031 249.321 344.132 250.356Z" fill="#5793CE"/>
<path d="M348.619 197.557H332.572V230.858H348.619V197.557Z" fill="#5793CE"/>
<path d="M335.678 230.686V237.933C338.611 239.313 342.58 239.313 345.513 237.933V230.686C342.58 229.306 338.611 229.306 335.678 230.686Z" fill="#396CAA"/>
<path d="M346.203 234.137C343.097 235.862 338.093 235.862 334.987 234.137C331.882 232.411 331.882 229.478 334.987 227.58C338.093 225.855 343.097 225.855 346.203 227.58C349.309 229.478 349.309 232.239 346.203 234.137Z" fill="#5793CE"/>
<path d="M354.14 296.945C353.45 296.945 352.76 296.254 352.76 295.564V238.796C352.76 238.105 353.45 237.415 354.14 237.415C354.831 237.415 355.521 238.105 355.521 238.796V295.564C355.521 296.254 354.831 296.945 354.14 296.945Z" fill="#5793CE"/>
<path d="M358.972 235.172H349.136V256.396H358.972V235.172Z" fill="#5793CE"/>
<path d="M357.591 258.466C355.693 259.502 352.587 259.502 350.689 258.466C348.791 257.431 348.791 255.533 350.689 254.498C352.587 253.462 355.693 253.462 357.591 254.498C359.489 255.533 359.489 257.431 357.591 258.466Z" fill="#5793CE"/>
<path d="M362.078 205.494H346.031V238.796H362.078V205.494Z" fill="#5793CE"/>
<path d="M349.136 238.623V245.87C352.07 247.251 356.038 247.251 358.972 245.87V238.623C356.038 237.416 352.07 237.416 349.136 238.623Z" fill="#396CAA"/>
<path d="M359.662 242.247C356.556 243.972 351.552 243.972 348.446 242.247C345.34 240.521 345.34 237.588 348.446 235.69C351.552 233.964 356.556 233.964 359.662 235.69C362.768 237.415 362.768 240.349 359.662 242.247Z" fill="#5793CE"/>
<path d="M367.599 304.882C366.909 304.882 366.219 304.192 366.219 303.501V246.733C366.219 246.043 366.909 245.353 367.599 245.353C368.289 245.353 368.98 246.043 368.98 246.733V303.501C368.98 304.364 368.289 304.882 367.599 304.882Z" fill="#5793CE"/>
<path d="M372.43 243.282H362.595V264.505H372.43V243.282Z" fill="#5793CE"/>
<path d="M371.05 266.576C369.152 267.611 366.046 267.611 364.148 266.576C362.25 265.541 362.25 263.643 364.148 262.607C366.046 261.572 369.152 261.572 371.05 262.607C372.948 263.643 372.948 265.368 371.05 266.576Z" fill="#5793CE"/>
<path d="M375.536 213.604H359.489V246.905H375.536V213.604Z" fill="#5793CE"/>
<path d="M362.595 246.733V253.98C365.528 255.36 369.497 255.36 372.43 253.98V246.733C369.497 245.352 365.528 245.352 362.595 246.733Z" fill="#396CAA"/>
<path d="M373.121 250.184C370.015 251.909 365.011 251.909 361.905 250.184C358.799 248.458 358.799 245.525 361.905 243.627C365.011 241.901 370.015 241.901 373.121 243.627C376.226 245.525 376.226 248.458 373.121 250.184Z" fill="#5793CE"/>
<path d="M381.058 312.992C380.368 312.992 379.677 312.301 379.677 311.611V254.843C379.677 254.153 380.368 253.462 381.058 253.462C381.748 253.462 382.438 254.153 382.438 254.843V311.611C382.438 312.301 381.748 312.992 381.058 312.992Z" fill="#5793CE"/>
<path d="M385.889 251.219H376.054V272.443H385.889V251.219Z" fill="#5793CE"/>
<path d="M384.509 274.513C382.611 275.549 379.505 275.549 377.607 274.513C375.709 273.478 375.709 271.58 377.607 270.545C379.505 269.509 382.611 269.509 384.509 270.545C386.407 271.58 386.407 273.478 384.509 274.513Z" fill="#5793CE"/>
<path d="M388.995 221.713H372.948V255.015H388.995V221.713Z" fill="#5793CE"/>
<path d="M376.054 254.843V262.09C378.987 263.47 382.956 263.47 385.889 262.09V254.843C383.128 253.462 378.987 253.462 376.054 254.843Z" fill="#396CAA"/>
<path d="M386.752 258.294C383.646 260.019 378.642 260.019 375.536 258.294C372.43 256.568 372.43 253.635 375.536 251.737C378.642 250.011 383.646 250.011 386.752 251.737C389.858 253.462 389.858 256.396 386.752 258.294Z" fill="#5793CE"/>
<path d="M443.693 282.623L465.089 270.027L444.728 244.49L439.207 253.29L443.693 282.623Z" fill="#5793CE"/>
<path d="M288.054 142.859L322.219 123.188L321.011 142.859L301.341 148.898L288.054 142.859Z" fill="#3789E6"/>
<path d="M449.56 218.607C446.971 217.055 444.556 216.192 442.14 215.847C438.689 197.729 426.093 178.576 411.081 169.776C406.595 167.188 402.281 165.808 398.313 165.463C396.242 143.549 381.058 118.529 362.423 107.831C352.76 102.31 343.96 101.62 337.403 105.071L337.058 105.243C336.885 105.416 336.713 105.416 336.54 105.588L316.352 117.494L323.082 122.843C317.042 125.431 313.246 132.161 313.246 142.168C313.246 160.631 326.187 182.89 342.062 192.035L449.56 268.646C461.465 275.548 471.128 270.027 471.128 256.223C471.301 242.247 461.465 225.509 449.56 218.607Z" fill="#3789E6"/>
<path d="M314.454 134.059L360.697 106.968C351.725 102.31 343.615 101.965 337.576 105.07L337.231 105.243C337.058 105.416 336.886 105.416 336.713 105.588L316.525 117.494L323.254 122.843C319.113 124.568 316.007 128.364 314.454 134.059Z" fill="#3789E6"/>
<path d="M399.866 213.431L433.685 193.588C427.819 183.58 419.881 174.78 411.081 169.776C409.873 169.086 408.838 168.568 407.63 168.051L364.666 193.243L399.866 213.431Z" fill="#3186DB"/>
<path d="M326.188 119.737L341.199 128.364L368.807 112.145C366.736 110.592 364.666 109.212 362.595 108.004C359.317 106.106 356.038 104.725 352.933 104.035L326.188 119.737Z" fill="#D4ECFF"/>
<path d="M430.062 187.894L403.144 203.769L412.462 214.294L436.964 199.8C434.893 195.659 432.65 191.69 430.062 187.894Z" fill="#D4ECFF"/>
<path d="M428.336 231.031C425.748 229.478 423.332 228.615 420.917 228.27C417.466 210.153 404.87 191 389.858 182.2C385.372 179.612 381.058 178.231 377.089 177.886C375.019 155.972 359.834 130.953 341.199 120.255C321.184 108.694 305.137 118.012 305.137 141.133C305.137 141.996 305.137 142.686 305.137 143.549C290.643 136.82 279.082 144.412 279.082 161.666C279.082 180.129 292.023 202.388 307.897 211.533L428.164 280.897C440.07 287.799 449.732 282.278 449.732 268.474C450.077 254.843 440.415 237.933 428.336 231.031Z" fill="#D4ECFF"/>
<path d="M305.309 143.549C305.309 142.686 305.309 141.996 305.309 141.133C305.309 141.133 305.309 141.133 305.309 140.961C297.199 137.855 290.297 139.235 285.984 144.239C290.643 140.443 297.545 139.926 305.309 143.549Z" fill="white"/>
<path d="M430.234 229.306C427.646 227.753 425.23 226.89 422.815 226.545C419.364 208.427 406.768 189.274 391.756 180.474C387.27 177.886 382.956 176.506 378.987 176.161C376.917 154.247 361.732 129.228 343.097 118.529C330.674 111.282 319.803 112.318 313.246 119.565C319.803 113.871 329.984 113.698 341.372 120.255C359.834 130.953 375.191 155.973 377.262 177.886C381.23 178.231 385.544 179.612 390.03 182.2C405.042 190.827 417.638 210.153 421.089 228.27C423.332 228.615 425.92 229.478 428.509 231.031C440.415 237.933 450.077 254.843 450.077 268.647C450.077 273.651 448.869 277.447 446.626 280.207C449.905 277.792 451.803 273.133 451.803 266.921C451.803 253.117 442.14 236.208 430.234 229.306Z" fill="white"/>
<path d="M302.721 149.07L311.693 153.212L311.176 143.204C311.176 142.514 311.176 141.823 311.176 141.133C311.176 132.333 313.937 125.776 318.768 123.016C323.599 120.255 330.501 121.118 338.266 125.604C354.831 135.094 369.325 158.388 371.05 178.576L371.568 183.58L376.572 183.925C379.678 184.098 383.129 185.306 386.752 187.376C399.866 194.968 411.772 212.568 414.877 229.305L415.74 233.447L419.881 234.137C421.607 234.482 423.332 235 425.23 236.207C435.411 242.074 443.866 256.741 443.866 268.474C443.866 272.788 442.658 276.066 440.587 277.274C438.517 278.482 435.066 277.964 431.27 275.721L311.003 206.356C297.027 198.247 285.121 177.886 285.121 161.666C285.121 155.282 287.019 150.451 290.297 148.38C291.678 147.517 293.231 147.172 295.129 147.172C297.544 147.172 300.133 147.863 302.721 149.07Z" fill="#3789E6"/>
<path d="M362.768 224.474L366.046 222.921L362.768 220.505V224.474Z" fill="#226FAF"/>
<path d="M353.278 181.509L356.383 179.957V181.682L353.278 181.509Z" fill="#5793CE"/>
<path d="M371.913 214.466L375.019 212.741L368.807 206.874L371.913 214.466Z" fill="#226FAF"/>
<path d="M365.011 222.748L349.999 213.948C349.309 213.431 348.619 212.396 348.619 211.36V193.933L366.391 204.458V221.886C366.391 222.748 365.874 223.266 365.011 222.748Z" fill="#226FAF"/>
<path d="M356.384 180.129L340.164 190.482C339.474 190.999 339.991 192.552 341.027 193.243L357.591 203.078L374.156 212.913C375.191 213.603 375.709 212.568 375.019 211.36L358.972 181.854C358.282 180.301 357.074 179.611 356.384 180.129Z" fill="#226FAF"/>
<path d="M361.733 224.302L346.721 215.502C346.031 214.984 345.34 213.949 345.34 212.913V195.486L363.113 206.012V223.439C363.286 224.474 362.595 224.819 361.733 224.302Z" fill="#D4ECFF"/>
<path d="M353.105 181.682L336.886 192.035C336.195 192.553 336.713 194.106 337.748 194.796L354.313 204.631L370.878 214.466C371.913 215.157 372.431 214.121 371.74 212.913L355.693 183.408C355.003 182.027 353.795 181.164 353.105 181.682Z" fill="#D4ECFF"/>
<path d="M416.085 532.646H414.187V429.807L426.438 422.732V372.176H428.164V423.94L416.085 430.842V532.646Z" fill="white"/>
<path d="M124.306 554.732C123.27 554.732 122.235 554.387 121.2 553.869L87.7255 534.889C86.6902 534.371 86 533.336 86 532.128C86 530.92 86.5176 529.885 87.5529 529.367L171.239 481.054C176.07 478.293 181.937 478.293 186.768 481.054L282.36 536.269L280.98 538.685L185.388 483.469C181.419 481.226 176.588 481.226 172.619 483.469L88.9333 531.783C88.7608 531.956 88.7608 532.128 88.7608 532.128C88.7608 532.301 88.7608 532.473 88.9333 532.473L122.408 551.453C123.616 552.144 124.996 552.144 126.031 551.281L140.18 542.136L141.733 544.379L127.584 553.524C126.721 554.387 125.514 554.732 124.306 554.732Z" fill="#D4E3F7"/>
<path d="M167.96 562.151L122.925 536.097C120.165 534.544 120.51 531.783 123.616 529.885L167.098 504.693C170.376 502.795 175.208 502.622 177.968 504.175L223.003 530.23C225.764 531.783 225.419 534.544 222.313 536.442L178.831 561.634C175.553 563.532 170.721 563.704 167.96 562.151Z" fill="#D4E3F7"/>
<path d="M238.015 510.56V491.062H194.36L179.349 482.262C175.898 480.191 169.859 480.536 165.89 482.779L151.741 490.889H108.086V510.905C107.914 512.285 108.776 513.493 110.329 514.528L166.753 547.14C170.204 549.21 176.243 548.865 180.211 546.622L234.737 515.218C236.98 513.838 238.188 512.113 238.015 510.56Z" fill="#2364A5"/>
<path d="M172.964 480.881C170.376 480.881 167.788 481.571 165.717 482.779L151.568 490.889H107.914V510.905C107.741 512.285 108.604 513.493 110.157 514.528L166.58 547.14C168.306 548.175 170.549 548.52 172.792 548.52V480.881H172.964Z" fill="#2364A5"/>
<path d="M112.918 490.889H107.914V510.905C107.741 512.285 108.604 513.493 110.157 514.528L112.745 516.081V490.889H112.918Z" fill="#3789E6"/>
<path d="M167.615 547.657C170.549 548.865 174.863 548.865 178.486 547.485V524.708H167.615V547.657Z" fill="#3789E6"/>
<path d="M166.753 527.297L110.157 494.685C106.706 492.615 107.051 489.164 111.192 486.92L165.717 455.517C169.686 453.273 175.725 452.928 179.176 454.999L235.6 487.611C239.05 489.681 238.705 493.132 234.564 495.375L180.039 526.779C176.243 529.022 170.204 529.195 166.753 527.297Z" fill="#D4ECFF"/>
<path d="M167.788 521.43L120.51 494.168C117.576 492.442 117.922 489.509 121.373 487.611L167.098 461.211C170.376 459.313 175.553 459.14 178.486 460.693L225.764 487.956C228.698 489.681 228.353 492.615 224.902 494.513L179.176 520.913C175.725 522.811 170.549 522.983 167.788 521.43Z" fill="#3789E6"/>
<path d="M217.309 515.736C217.309 517.117 216.274 519.015 215.066 519.705C213.858 520.395 212.823 519.877 212.823 518.324C212.823 516.944 213.858 515.046 215.066 514.356C216.274 513.666 217.309 514.183 217.309 515.736Z" fill="#D4ECFF"/>
<path d="M224.556 511.422C224.556 512.803 223.521 514.701 222.313 515.391C221.105 516.081 220.07 515.563 220.07 514.011C220.07 512.63 221.105 510.732 222.313 510.042C223.521 509.352 224.556 510.042 224.556 511.422Z" fill="#D4ECFF"/>
<path d="M231.976 507.109C231.976 508.489 230.941 510.387 229.733 511.077C228.525 511.767 227.49 511.25 227.49 509.697C227.49 508.317 228.525 506.418 229.733 505.728C230.941 505.211 231.976 505.728 231.976 507.109Z" fill="#D4ECFF"/>
<path d="M238.015 479.329V459.831H194.36L179.349 451.031C175.898 448.96 169.859 449.305 165.89 451.548L151.741 459.658H108.086V479.674C107.914 481.054 108.776 482.262 110.329 483.297L166.753 515.909C170.204 517.979 176.243 517.634 180.211 515.391L234.737 483.987C236.98 482.779 238.188 481.054 238.015 479.329Z" fill="#2364A5"/>
<path d="M172.964 449.823C170.376 449.823 167.788 450.513 165.717 451.721L151.568 459.83H107.914V479.846C107.741 481.226 108.604 482.434 110.157 483.47L166.58 516.081C168.306 517.117 170.549 517.462 172.792 517.462V449.823H172.964Z" fill="#2364A5"/>
<path d="M112.918 459.831H107.914V479.846C107.741 481.227 108.604 482.434 110.157 483.47L112.745 485.023V459.831H112.918Z" fill="#3789E6"/>
<path d="M167.615 516.426C170.549 517.634 174.863 517.634 178.486 516.254V493.478H167.615V516.426Z" fill="#3789E6"/>
<path d="M166.753 496.066L110.157 463.454C106.706 461.383 107.051 457.932 111.192 455.689L165.717 424.285C169.686 422.042 175.725 421.697 179.176 423.768L235.6 456.379C239.05 458.45 238.705 461.901 234.564 464.144L180.039 495.548C176.243 497.791 170.204 498.136 166.753 496.066Z" fill="#D4ECFF"/>
<path d="M167.788 490.199L120.51 462.936C117.576 461.211 117.922 458.278 121.373 456.38L167.098 429.98C170.376 428.082 175.553 427.909 178.486 429.462L225.764 456.725C228.698 458.45 228.353 461.384 224.902 463.282L179.176 489.681C175.725 491.752 170.549 491.925 167.788 490.199Z" fill="#3789E6"/>
<path d="M217.309 484.505C217.309 485.885 216.274 487.783 215.066 488.474C213.858 489.164 212.823 488.646 212.823 487.093C212.823 485.713 213.858 483.815 215.066 483.125C216.274 482.434 217.309 483.125 217.309 484.505Z" fill="#D4ECFF"/>
<path d="M224.556 480.364C224.556 481.744 223.521 483.642 222.313 484.332C221.105 485.022 220.07 484.505 220.07 482.952C220.07 481.571 221.105 479.673 222.313 478.983C223.521 478.293 224.556 478.811 224.556 480.364Z" fill="#D4ECFF"/>
<path d="M231.976 476.05C231.976 477.43 230.941 479.328 229.733 480.019C228.525 480.709 227.49 480.191 227.49 478.638C227.49 477.258 228.525 475.36 229.733 474.67C230.941 473.979 231.976 474.67 231.976 476.05Z" fill="#D4ECFF"/>
<path d="M238.015 448.27V428.772H194.36L179.349 419.972C175.898 417.901 169.859 418.246 165.89 420.489L151.741 428.599H108.086V448.615C107.914 449.995 108.776 451.203 110.329 452.238L166.753 484.85C170.204 486.92 176.243 486.575 180.211 484.332L234.737 452.928C236.98 451.548 238.188 449.823 238.015 448.27Z" fill="#2364A5"/>
<path d="M172.964 418.764C170.376 418.764 167.788 419.454 165.717 420.662L151.568 428.772H107.914V448.787C107.741 450.168 108.604 451.376 110.157 452.411L166.58 485.023C168.306 486.058 170.549 486.403 172.792 486.403V418.764H172.964Z" fill="#2364A5"/>
<path d="M112.918 428.772H107.914V448.787C107.741 450.168 108.604 451.376 110.157 452.411L112.745 453.964V428.772H112.918Z" fill="#3789E6"/>
<path d="M167.615 485.368C170.549 486.575 174.863 486.575 178.486 485.195V462.419H167.615V485.368Z" fill="#3789E6"/>
<path d="M166.753 465.007L110.157 432.395C106.706 430.324 107.051 426.874 111.192 424.63L165.717 393.227C169.686 390.983 175.725 390.638 179.176 392.709L235.6 425.321C239.05 427.391 238.705 430.842 234.564 433.085L180.039 464.489C176.243 466.732 170.204 466.905 166.753 465.007Z" fill="#D4ECFF"/>
<path d="M234.737 429.117L180.211 460.52C176.243 462.764 170.204 463.109 166.753 461.038L110.157 428.599C109.467 428.081 108.776 427.564 108.431 427.046C107.223 428.944 107.741 431.015 110.157 432.395L166.58 465.007C170.031 467.077 176.07 466.732 180.039 464.489L234.564 433.085C237.67 431.36 238.533 428.772 237.325 426.874C236.807 427.564 235.945 428.426 234.737 429.117Z" fill="white"/>
<path d="M217.309 453.446C217.309 454.826 216.274 456.724 215.066 457.415C213.858 458.105 212.823 457.587 212.823 456.034C212.823 454.654 213.858 452.756 215.066 452.066C216.274 451.376 217.309 451.893 217.309 453.446Z" fill="#D4ECFF"/>
<path d="M224.556 449.132C224.556 450.513 223.521 452.411 222.313 453.101C221.105 453.791 220.07 453.274 220.07 451.721C220.07 450.34 221.105 448.442 222.313 447.752C223.521 447.062 224.556 447.752 224.556 449.132Z" fill="#D4ECFF"/>
<path d="M231.976 444.991C231.976 446.372 230.941 448.27 229.733 448.96C228.525 449.65 227.49 449.132 227.49 447.579C227.49 446.199 228.525 444.301 229.733 443.611C230.941 442.921 231.976 443.438 231.976 444.991Z" fill="#D4ECFF"/>
<path d="M170.031 444.819L143.631 429.634C142.078 428.772 142.251 427.046 144.149 426.011L169.686 411.344C171.584 410.309 174.345 410.136 176.07 410.999L202.47 426.183C204.023 427.046 203.851 428.772 201.952 429.807L176.415 444.474C174.517 445.681 171.584 445.681 170.031 444.819Z" fill="#3789E6"/>
<path d="M172.619 432.05L168.996 429.98C168.823 429.807 168.823 429.634 168.996 429.462L172.447 427.391C172.792 427.219 173.137 427.219 173.31 427.391L176.933 429.462C177.106 429.634 177.106 429.807 176.933 429.98L173.482 432.05C173.137 432.05 172.792 432.223 172.619 432.05Z" fill="#D4ECFF"/>
<path d="M143.631 429.462C143.804 429.462 143.976 429.289 144.149 429.289L169.686 414.623C171.584 413.587 174.345 413.415 176.07 414.278L202.47 429.462C204.023 428.427 204.023 426.874 202.47 426.011L176.07 410.827C174.517 409.964 171.584 409.964 169.686 411.172L144.149 425.838C142.251 426.874 141.906 428.599 143.631 429.462Z" fill="#396CAA"/>
<path d="M163.129 470.701C163.129 471.736 162.439 472.081 161.576 471.564C160.713 471.046 160.023 469.838 160.023 468.975C160.023 467.94 160.713 467.595 161.576 468.113C162.439 468.458 163.129 469.666 163.129 470.701Z" fill="#D4ECFF"/>
<path d="M158.298 467.94C158.298 468.975 157.608 469.321 156.745 468.803C155.882 468.285 155.192 467.077 155.192 466.215C155.192 465.179 155.882 464.834 156.745 465.352C157.608 465.697 158.298 466.905 158.298 467.94Z" fill="#D4ECFF"/>
<path d="M163.129 476.395C163.129 477.43 162.439 477.775 161.576 477.258C160.713 476.74 160.023 475.532 160.023 474.67C160.023 473.634 160.713 473.289 161.576 473.807C162.439 474.324 163.129 475.532 163.129 476.395Z" fill="#D4ECFF"/>
<path d="M158.298 473.634C158.298 474.67 157.608 475.015 156.745 474.497C155.882 473.979 155.192 472.772 155.192 471.909C155.192 470.874 155.882 470.528 156.745 471.046C157.608 471.564 158.298 472.772 158.298 473.634Z" fill="#D4ECFF"/>
<path d="M163.129 501.587C163.129 502.622 162.439 502.967 161.576 502.45C160.713 501.932 160.023 500.724 160.023 499.862C160.023 498.826 160.713 498.481 161.576 498.999C162.439 499.516 163.129 500.724 163.129 501.587Z" fill="#D4ECFF"/>
<path d="M158.298 498.999C158.298 500.034 157.608 500.379 156.745 499.862C155.882 499.344 155.192 498.136 155.192 497.273C155.192 496.238 155.882 495.893 156.745 496.411C157.608 496.756 158.298 497.964 158.298 498.999Z" fill="#D4ECFF"/>
<path d="M163.129 507.454C163.129 508.489 162.439 508.834 161.576 508.316C160.713 507.799 160.023 506.591 160.023 505.728C160.023 504.693 160.713 504.348 161.576 504.866C162.439 505.211 163.129 506.418 163.129 507.454Z" fill="#D4ECFF"/>
<path d="M158.298 504.693C158.298 505.728 157.608 506.073 156.745 505.556C155.882 505.038 155.192 503.83 155.192 502.968C155.192 501.932 155.882 501.587 156.745 502.105C157.608 502.45 158.298 503.658 158.298 504.693Z" fill="#D4ECFF"/>
<path d="M163.129 532.646C163.129 533.681 162.439 534.026 161.576 533.508C160.713 532.991 160.023 531.783 160.023 530.92C160.023 529.885 160.713 529.54 161.576 530.058C162.439 530.403 163.129 531.61 163.129 532.646Z" fill="#D4ECFF"/>
<path d="M158.298 529.885C158.298 530.92 157.608 531.266 156.745 530.748C155.882 530.23 155.192 529.022 155.192 528.16C155.192 527.124 155.882 526.779 156.745 527.297C157.608 527.815 158.298 528.85 158.298 529.885Z" fill="#D4ECFF"/>
<path d="M163.129 538.34C163.129 539.375 162.439 539.72 161.576 539.203C160.713 538.685 160.023 537.477 160.023 536.614C160.023 535.579 160.713 535.234 161.576 535.752C162.439 536.269 163.129 537.477 163.129 538.34Z" fill="#D4ECFF"/>
<path d="M158.298 535.579C158.298 536.615 157.608 536.96 156.745 536.442C155.882 535.924 155.192 534.716 155.192 533.854C155.192 532.818 155.882 532.473 156.745 532.991C157.608 533.509 158.298 534.716 158.298 535.579Z" fill="#D4ECFF"/>
<path d="M173.655 585.273C172.102 585.273 170.376 584.928 168.996 584.065L140.525 567.5C139.49 566.983 138.972 565.947 138.972 564.74C138.972 563.532 139.49 562.669 140.525 561.979L159.161 551.108L160.541 553.524L141.906 564.394C141.733 564.394 141.733 564.567 141.733 564.74C141.733 564.912 141.733 564.912 141.906 565.085L170.376 581.649C172.447 582.857 174.862 582.857 176.933 581.649L232.666 549.9C235.6 548.347 239.051 548.347 241.984 549.9L288.744 576.818C290.815 578.026 293.231 578.026 295.301 576.818L317.733 563.877L319.113 566.293L296.682 579.234C293.748 580.959 290.297 580.959 287.364 579.234L240.776 552.316C238.705 551.108 236.29 551.108 234.219 552.316L178.486 584.065C176.933 584.928 175.208 585.273 173.655 585.273Z" fill="#D4E3F7"/>
<path d="M420.744 690.355L375.709 664.3C372.948 662.747 373.293 659.986 376.399 658.088L419.881 632.896C423.16 630.998 427.991 630.826 430.752 632.379L475.96 658.606C478.72 660.159 478.375 662.92 475.269 664.818L431.787 690.01C428.509 691.735 423.677 691.908 420.744 690.355Z" fill="#D4E3F7"/>
<path d="M490.971 638.763V619.265H447.317L432.305 610.465C428.854 608.395 422.815 608.74 418.846 610.983L404.697 619.093H361.042V639.108C360.87 640.489 361.732 641.696 363.285 642.732L419.709 675.343C423.16 677.414 429.199 677.069 433.168 674.826L487.693 643.422C489.936 642.042 490.971 640.316 490.971 638.763Z" fill="#2364A5"/>
<path d="M425.92 609.085C423.332 609.085 420.744 609.775 418.673 610.983L404.524 619.093H360.87V639.108C360.697 640.489 361.56 641.696 363.113 642.732L419.536 675.343C421.262 676.379 423.505 676.724 425.748 676.724V609.085H425.92Z" fill="#2364A5"/>
<path d="M365.701 619.093H360.697V639.108C360.525 640.489 361.387 641.696 362.94 642.732L365.529 644.285V619.093H365.701Z" fill="#3789E6"/>
<path d="M420.399 675.861C423.332 677.069 427.646 677.069 431.269 675.688V652.912H420.399V675.861Z" fill="#3789E6"/>
<path d="M419.536 655.5L363.113 622.889C359.662 620.818 360.007 617.367 364.148 615.124L418.673 583.72C422.642 581.477 428.681 581.132 432.132 583.202L488.556 615.814C492.007 617.885 491.661 621.336 487.52 623.579L432.995 654.983C429.026 657.226 422.987 657.398 419.536 655.5Z" fill="#D4ECFF"/>
<path d="M420.571 649.634L373.293 622.371C370.36 620.646 370.705 617.712 374.156 615.814L419.881 589.414C423.16 587.516 428.336 587.344 431.27 588.897L478.548 616.159C481.481 617.885 481.136 620.818 477.685 622.716L431.96 649.116C428.509 651.014 423.505 651.187 420.571 649.634Z" fill="#3789E6"/>
<path d="M470.093 643.767C470.093 645.147 469.058 647.045 467.85 647.736C466.642 648.426 465.607 647.908 465.607 646.355C465.607 644.975 466.642 643.077 467.85 642.387C469.058 641.869 470.093 642.387 470.093 643.767Z" fill="#D4ECFF"/>
<path d="M477.512 639.626C477.512 641.006 476.477 642.904 475.269 643.594C474.062 644.285 473.026 643.767 473.026 642.214C473.026 640.834 474.062 638.936 475.269 638.245C476.477 637.555 477.512 638.245 477.512 639.626Z" fill="#D4ECFF"/>
<path d="M484.76 635.312C484.76 636.693 483.724 638.591 482.516 639.281C481.309 639.971 480.273 639.453 480.273 637.9C480.273 636.52 481.309 634.622 482.516 633.932C483.724 633.414 484.76 633.932 484.76 635.312Z" fill="#D4ECFF"/>
<path d="M490.971 607.532V588.034H447.317L432.305 579.234C428.854 577.163 422.815 577.508 418.846 579.751L404.697 587.861H361.042V607.877C360.87 609.257 361.732 610.465 363.285 611.5L419.709 644.112C423.16 646.183 429.199 645.837 433.168 643.594L487.693 612.19C489.936 610.983 490.971 609.257 490.971 607.532Z" fill="#2364A5"/>
<path d="M425.92 578.026C423.332 578.026 420.744 578.716 418.673 579.924L404.524 588.034H360.87V608.049C360.697 609.43 361.56 610.638 363.113 611.673L419.536 644.285C421.262 645.32 423.505 645.665 425.748 645.665V578.026H425.92Z" fill="#2364A5"/>
<path d="M365.701 588.034H360.697V608.05C360.525 609.43 361.387 610.638 362.94 611.673L365.529 613.226V588.034H365.701Z" fill="#3789E6"/>
<path d="M420.399 644.63C423.332 645.838 427.646 645.838 431.269 644.457V621.681H420.399V644.63Z" fill="#3789E6"/>
<path d="M419.536 624.269L363.113 591.657C359.662 589.587 360.007 586.136 364.148 583.893L418.673 552.489C422.642 550.246 428.681 549.901 432.132 551.971L488.556 584.583C492.007 586.653 491.661 590.104 487.52 592.347L432.995 623.751C429.026 625.994 422.987 626.34 419.536 624.269Z" fill="#D4ECFF"/>
<path d="M420.571 618.402L373.293 591.14C370.36 589.414 370.705 586.481 374.156 584.583L419.881 558.183C423.16 556.285 428.336 556.112 431.27 557.665L478.548 584.928C481.481 586.653 481.136 589.587 477.685 591.485L431.96 617.885C428.509 619.955 423.505 620.128 420.571 618.402Z" fill="#3789E6"/>
<path d="M470.093 612.708C470.093 614.089 469.058 615.987 467.85 616.677C466.642 617.367 465.607 616.849 465.607 615.296C465.607 613.916 466.642 612.018 467.85 611.328C469.058 610.638 470.093 611.328 470.093 612.708Z" fill="#D4ECFF"/>
<path d="M477.512 608.567C477.512 609.947 476.477 611.845 475.269 612.536C474.062 613.226 473.026 612.708 473.026 611.155C473.026 609.775 474.062 607.877 475.269 607.187C476.477 606.496 477.512 607.014 477.512 608.567Z" fill="#D4ECFF"/>
<path d="M484.76 604.253C484.76 605.634 483.724 607.532 482.516 608.222C481.309 608.912 480.273 608.394 480.273 606.842C480.273 605.461 481.309 603.563 482.516 602.873C483.724 602.183 484.76 602.873 484.76 604.253Z" fill="#D4ECFF"/>
<path d="M490.971 576.473V556.975H447.317L432.305 548.175C428.854 546.104 422.815 546.449 418.846 548.693L404.697 556.802H361.042V576.818C360.87 578.198 361.732 579.406 363.285 580.442L419.709 613.053C423.16 615.124 429.199 614.779 433.168 612.536L487.693 581.132C489.936 579.751 490.971 578.026 490.971 576.473Z" fill="#2364A5"/>
<path d="M425.92 546.967C423.332 546.967 420.744 547.657 418.673 548.865L404.524 556.975H360.87V576.991C360.697 578.371 361.56 579.579 363.113 580.614L419.536 613.226C421.262 614.261 423.505 614.606 425.748 614.606V546.967H425.92Z" fill="#2364A5"/>
<path d="M365.701 556.975H360.697V576.991C360.525 578.371 361.387 579.579 362.94 580.614L365.529 582.167V556.975H365.701Z" fill="#3789E6"/>
<path d="M420.399 613.571C423.332 614.779 427.646 614.779 431.269 613.398V590.622H420.399V613.571Z" fill="#3789E6"/>
<path d="M419.536 593.21L363.113 560.599C359.662 558.528 360.007 555.077 364.148 552.834L418.673 521.43C422.642 519.187 428.681 518.842 432.132 520.912L488.556 553.524C492.007 555.595 491.661 559.046 487.52 561.289L432.995 592.693C429.026 594.936 422.987 595.108 419.536 593.21Z" fill="#D4ECFF"/>
<path d="M487.52 557.32L432.995 588.724C429.026 590.967 422.987 591.312 419.536 589.242L363.113 556.803C362.423 556.285 361.733 555.767 361.387 555.25C360.18 557.148 360.697 559.218 363.113 560.599L419.536 593.21C422.987 595.281 429.026 594.936 432.995 592.693L487.52 561.289C490.626 559.563 491.489 556.975 490.281 555.077C489.763 555.767 488.901 556.63 487.52 557.32Z" fill="white"/>
<path d="M470.093 581.65C470.093 583.03 469.058 584.928 467.85 585.618C466.642 586.308 465.607 585.791 465.607 584.238C465.607 582.685 466.642 580.959 467.85 580.269C469.058 579.579 470.093 580.097 470.093 581.65Z" fill="#D4ECFF"/>
<path d="M477.512 577.336C477.512 578.716 476.477 580.614 475.269 581.304C474.062 581.995 473.026 581.477 473.026 579.924C473.026 578.544 474.062 576.646 475.269 575.955C476.477 575.265 477.512 575.955 477.512 577.336Z" fill="#D4ECFF"/>
<path d="M484.76 573.195C484.76 574.575 483.724 576.473 482.516 577.163C481.309 577.854 480.273 577.336 480.273 575.783C480.273 574.403 481.309 572.505 482.516 571.814C483.724 571.124 484.76 571.642 484.76 573.195Z" fill="#D4ECFF"/>
<path d="M422.987 573.022L396.587 557.838C395.034 556.975 395.207 555.25 397.105 554.214L422.642 539.548C424.54 538.512 427.301 538.34 429.026 539.203L455.426 554.387C456.979 555.25 456.807 556.975 454.909 558.01L429.371 572.677C427.301 573.885 424.54 573.885 422.987 573.022Z" fill="#3789E6"/>
<path d="M425.403 560.254L421.779 558.183C421.607 558.01 421.607 557.838 421.779 557.665L425.23 555.595C425.576 555.422 425.921 555.422 426.093 555.595L429.717 557.665C429.889 557.838 429.889 558.01 429.717 558.183L426.266 560.254C426.093 560.254 425.575 560.426 425.403 560.254Z" fill="#D4ECFF"/>
<path d="M396.415 557.665C396.587 557.665 396.76 557.493 396.932 557.493L422.47 542.826C424.368 541.791 427.128 541.618 428.854 542.481L455.254 557.665C456.807 556.63 456.807 555.077 455.254 554.214L428.854 539.03C427.301 538.167 424.368 538.167 422.47 539.375L396.932 554.042C395.034 555.077 394.862 556.803 396.415 557.665Z" fill="#396CAA"/>
<path d="M339.129 244.662C339.129 245.698 338.438 246.043 337.576 245.525C336.713 245.007 336.023 243.799 336.023 242.937C336.023 241.901 336.713 241.556 337.576 242.074C338.438 242.592 339.129 243.799 339.129 244.662Z" fill="#D4ECFF"/>
<path d="M352.587 252.945C352.587 253.98 351.897 254.325 351.035 253.807C350.172 253.29 349.482 252.082 349.482 251.219C349.482 250.184 350.172 249.839 351.035 250.356C351.897 250.702 352.587 251.909 352.587 252.945Z" fill="#D4ECFF"/>
<path d="M366.046 261.054C366.046 262.09 365.356 262.435 364.493 261.917C363.63 261.399 362.94 260.192 362.94 259.329C362.94 258.294 363.63 257.948 364.493 258.466C365.356 258.984 366.046 260.192 366.046 261.054Z" fill="#D4ECFF"/>
<path d="M379.678 269.337C379.678 270.372 378.987 270.717 378.125 270.2C377.262 269.682 376.572 268.474 376.572 267.611C376.572 266.576 377.262 266.231 378.125 266.749C378.987 267.094 379.678 268.302 379.678 269.337Z" fill="#D4ECFF"/>
</g>
<defs>
<clipPath id="clip0_3933_563">
<rect width="487.967" height="614.1" fill="white" transform="translate(86 103)"/>
</clipPath>
</defs>
</svg>
