<svg width="56" height="56" viewBox="0 0 56 56" fill="none" xmlns="http://www.w3.org/2000/svg">
<g clip-path="url(#clip0_4029_11)">
<path d="M52.6093 37.3749C52.6074 35.6505 52.149 33.9573 51.2805 32.4675C50.4121 30.9777 49.1646 29.7445 47.665 28.8931L51.7167 9.7107C51.9954 8.39344 51.7394 7.01942 51.005 5.89092C50.2706 4.76243 49.118 3.97188 47.8007 3.6932C46.4835 3.41453 45.1095 3.67054 43.981 4.40493C42.8525 5.13932 42.0619 6.29192 41.7832 7.60918L37.5576 27.6093H18.4423L14.2159 7.6077C13.9357 6.29191 13.1446 5.14117 12.0165 4.40824C10.8884 3.67532 9.51548 3.42017 8.19936 3.69882C6.88324 3.97748 5.73154 4.76716 4.99726 5.89439C4.26298 7.02163 4.00617 8.39424 4.28324 9.7107L8.33492 28.8931C6.92571 29.689 5.73732 30.8239 4.87741 32.1949C4.0175 33.566 3.51324 35.13 3.41032 36.7451C3.30739 38.3602 3.60906 39.9755 4.28797 41.4447C4.96689 42.9138 6.00162 44.1903 7.29841 45.1586C7.29831 45.3603 7.29685 48.2566 7.29689 48.1171C7.29821 49.3081 7.77191 50.4499 8.61408 51.2921C9.45624 52.1342 10.5981 52.6079 11.7891 52.6093H19.2109C20.4019 52.6079 21.5438 52.1342 22.3859 51.2921C23.2281 50.4499 23.7018 49.3081 23.7031 48.1171V47.1405H32.2969V48.1171C32.2982 49.3081 32.7719 50.4499 33.6141 51.2921C34.4562 52.1342 35.5981 52.6079 36.7891 52.6093H44.2109C45.4019 52.6079 46.5438 52.1342 47.3859 51.2921C48.2281 50.4499 48.7018 49.3081 48.7031 48.1171V45.1574C49.9136 44.2524 50.8968 43.078 51.5748 41.7272C52.2528 40.3764 52.607 38.8863 52.6093 37.3749ZM44.0759 8.0952C44.2259 7.38608 44.6514 6.76559 45.2589 6.37023C45.5597 6.17446 45.8961 6.03986 46.2489 5.97411C46.6017 5.90836 46.964 5.91274 47.3151 5.987C47.6662 6.06127 47.9993 6.20397 48.2953 6.40695C48.5912 6.60993 48.8443 6.86922 49.0401 7.17001C49.2359 7.4708 49.3705 7.80721 49.4362 8.16002C49.502 8.51283 49.4976 8.87514 49.4233 9.22626L45.4629 27.9764C44.6106 27.7353 43.7294 27.6117 42.8437 27.6093H39.9534L44.0759 8.0952ZM6.57663 9.22623C6.42644 8.51722 6.56405 7.77758 6.9592 7.17003C7.35434 6.56248 7.97466 6.13678 8.68367 5.98659C9.39269 5.8364 10.1323 5.97401 10.7399 6.36916C11.3474 6.76431 11.7731 7.38462 11.9233 8.09363L16.0465 27.6093H13.1562C12.2705 27.6117 11.3893 27.7353 10.537 27.9764L6.57663 9.22623ZM21.3593 48.1171C21.3588 48.6867 21.1322 49.2328 20.7294 49.6356C20.3267 50.0384 19.7805 50.2649 19.2109 50.2655H11.789C11.2194 50.2649 10.6733 50.0384 10.2705 49.6356C9.86771 49.2328 9.64118 48.6867 9.6406 48.1171V47.1405H21.3593V48.1171ZM46.3593 48.1171C46.3588 48.6867 46.1322 49.2328 45.7294 49.6356C45.3267 50.0384 44.7805 50.2649 44.2109 50.2655H36.789C36.2194 50.2649 35.6733 50.0384 35.2705 49.6356C34.8677 49.2328 34.6412 48.6867 34.6406 48.1171V47.1405H46.3593V48.1171ZM42.8437 44.7968H13.1562C11.1878 44.7968 9.30003 44.0148 7.90816 42.6229C6.51629 41.2311 5.73435 39.3433 5.73435 37.3749C5.73435 35.4065 6.51629 33.5187 7.90816 32.1268C9.30003 30.735 11.1878 29.953 13.1562 29.953H42.8437C44.8121 29.953 46.6999 30.735 48.0918 32.1268C49.4837 33.5187 50.2656 35.4065 50.2656 37.3749C50.2656 39.3433 49.4837 41.2311 48.0918 42.6229C46.6999 44.0148 44.8121 44.7968 42.8437 44.7968Z" fill="#1A2635"/>
<path d="M14.3281 33.4686C13.5555 33.4686 12.8003 33.6977 12.1579 34.1269C11.5156 34.5562 11.0149 35.1662 10.7192 35.88C10.4236 36.5938 10.3462 37.3792 10.4969 38.137C10.6477 38.8947 11.0197 39.5907 11.566 40.137C12.1123 40.6833 12.8083 41.0553 13.5661 41.2061C14.3238 41.3568 15.1092 41.2794 15.823 40.9838C16.5368 40.6881 17.1468 40.1875 17.5761 39.5451C18.0053 38.9027 18.2344 38.1475 18.2344 37.3749C18.2332 36.3392 17.8212 35.3464 17.0889 34.6141C16.3566 33.8818 15.3638 33.4698 14.3281 33.4686ZM14.3281 38.9374C14.0191 38.9374 13.717 38.8457 13.46 38.6741C13.2031 38.5024 13.0028 38.2583 12.8846 37.9728C12.7663 37.6873 12.7354 37.3731 12.7957 37.07C12.8559 36.767 13.0048 36.4885 13.2233 36.27C13.4418 36.0515 13.7202 35.9027 14.0233 35.8424C14.3264 35.7821 14.6406 35.8131 14.9261 35.9313C15.2116 36.0496 15.4556 36.2498 15.6273 36.5068C15.799 36.7638 15.8906 37.0658 15.8906 37.3749C15.8902 37.7891 15.7254 38.1863 15.4325 38.4792C15.1395 38.7721 14.7424 38.9369 14.3281 38.9374Z" fill="#1A2635"/>
<path d="M25.2656 33.4686C24.493 33.4686 23.7378 33.6977 23.0954 34.1269C22.4531 34.5562 21.9524 35.1662 21.6567 35.88C21.3611 36.5938 21.2837 37.3792 21.4344 38.137C21.5852 38.8947 21.9572 39.5907 22.5035 40.137C23.0498 40.6833 23.7458 41.0553 24.5036 41.2061C25.2613 41.3568 26.0467 41.2794 26.7605 40.9838C27.4743 40.6881 28.0843 40.1875 28.5136 39.5451C28.9428 38.9027 29.1719 38.1475 29.1719 37.3749C29.1707 36.3392 28.7587 35.3464 28.0264 34.6141C27.2941 33.8818 26.3013 33.4698 25.2656 33.4686ZM25.2656 38.9374C24.9566 38.9374 24.6545 38.8457 24.3975 38.6741C24.1406 38.5024 23.9403 38.2583 23.8221 37.9728C23.7038 37.6873 23.6729 37.3731 23.7332 37.07C23.7934 36.767 23.9423 36.4885 24.1608 36.27C24.3793 36.0515 24.6577 35.9027 24.9608 35.8424C25.2639 35.7821 25.5781 35.8131 25.8636 35.9313C26.1491 36.0496 26.3931 36.2498 26.5648 36.5068C26.7365 36.7638 26.8281 37.0658 26.8281 37.3749C26.8277 37.7891 26.6629 38.1863 26.37 38.4792C26.077 38.7721 25.6799 38.9369 25.2656 38.9374Z" fill="#1A2635"/>
<path d="M37.7269 6.5702C34.9046 4.5042 31.4978 3.3905 28.0001 3.3905C24.5024 3.3905 21.0956 4.5042 18.2733 6.5702C18.0407 6.74058 17.844 6.95509 17.6944 7.20149C17.5448 7.44789 17.4451 7.72135 17.4012 8.00626C17.3124 8.58166 17.4558 9.16875 17.7999 9.63838C18.144 10.108 18.6606 10.4217 19.236 10.5105C19.8114 10.5993 20.3985 10.4558 20.8681 10.1117C22.9377 8.5973 25.4356 7.78098 28.0001 7.78098C30.5646 7.78098 33.0625 8.5973 35.132 10.1117C35.3646 10.2821 35.6284 10.405 35.9084 10.4734C36.1885 10.5419 36.4793 10.5544 36.7642 10.5105C37.0491 10.4665 37.3225 10.3669 37.5689 10.2173C37.8153 10.0676 38.0298 9.87092 38.2002 9.63838C38.3706 9.40585 38.4935 9.14202 38.5619 8.86198C38.6304 8.58194 38.643 8.29117 38.599 8.00626C38.555 7.72135 38.4554 7.44789 38.3058 7.20149C38.1561 6.95509 37.9594 6.74058 37.7269 6.5702Z" fill="#3789E6"/>
<path d="M28.0002 11.203C25.6678 11.2013 23.4206 12.0791 21.7068 13.6611C21.2797 14.0558 21.0265 14.6038 21.003 15.1849C20.9795 15.766 21.1876 16.3327 21.5815 16.7606C21.9754 17.1885 22.523 17.4425 23.104 17.467C23.6851 17.4916 24.2522 17.2845 24.6807 16.8913C25.5851 16.0568 26.7705 15.5934 28.0011 15.5935C29.2317 15.5936 30.4171 16.0571 31.3214 16.8918C31.5334 17.0875 31.782 17.2395 32.0528 17.3391C32.3237 17.4387 32.6116 17.4839 32.8999 17.4721C33.1883 17.4603 33.4715 17.3918 33.7333 17.2705C33.9951 17.1491 34.2305 16.9773 34.4259 16.7649C34.6212 16.5525 34.7728 16.3037 34.8719 16.0327C34.971 15.7616 35.0157 15.4737 35.0034 15.1854C34.9911 14.897 34.9221 14.614 34.8003 14.3523C34.6785 14.0907 34.5063 13.8557 34.2935 13.6607C32.5794 12.0792 30.3324 11.2017 28.0002 11.203Z" fill="#3789E6"/>
<path d="M28.0002 19.0155C27.3616 19.0155 26.7374 19.2049 26.2065 19.5596C25.6756 19.9144 25.2618 20.4186 25.0175 21.0085C24.7731 21.5984 24.7092 22.2476 24.8338 22.8738C24.9583 23.5001 25.2658 24.0753 25.7173 24.5269C26.1688 24.9784 26.7441 25.2858 27.3704 25.4104C27.9966 25.535 28.6457 25.4711 29.2357 25.2267C29.8256 24.9824 30.3298 24.5686 30.6846 24.0377C31.0393 23.5067 31.2287 22.8826 31.2287 22.244C31.2287 21.82 31.1452 21.4002 30.9829 21.0085C30.8207 20.6168 30.5829 20.2609 30.2831 19.9611C29.9833 19.6613 29.6274 19.4235 29.2357 19.2612C28.844 19.099 28.4241 19.0155 28.0002 19.0155Z" fill="#3789E6"/>
</g>
<defs>
<clipPath id="clip0_4029_11">
<rect width="50" height="50" fill="white" transform="translate(3 2.99988)"/>
</clipPath>
</defs>
</svg>
